<svg xmlns="http://www.w3.org/2000/svg" width="15" height="20" viewBox="0 0 15 20">
    <g fill="#FFF" fill-rule="nonzero">
        <path d="M7.5 4A2.503 2.503 0 0 0 5 6.5C5 7.878 6.122 9 7.5 9S10 7.878 10 6.5 8.878 4 7.5 4zm0 4.286A1.788 1.788 0 0 1 5.714 6.5c0-.985.801-1.786 1.786-1.786s1.786.801 1.786 1.786S8.485 8.286 7.5 8.286z"/>
        <path d="M12.804 2.052C11.388.729 9.504 0 7.501 0 5.497 0 3.614.729 2.197 2.052-.425 4.5-.75 9.105 1.492 11.896L7.5 20l6-8.093c2.25-2.802 1.925-7.407-.697-9.855zm.063 9.428L7.5 18.717l-5.375-7.248c-2.033-2.532-1.742-6.692.625-8.9C4.019 1.382 5.706.73 7.5.73c1.794 0 3.481.652 4.75 1.837 2.367 2.21 2.658 6.369.616 8.912z"/>
    </g>
</svg>
