<svg xmlns="http://www.w3.org/2000/svg" width="16" height="20" viewBox="0 0 16 20">
    <path fill="#FFF" fill-rule="nonzero" d="M15.353 7.83h-1.88a.32.32 0 0 0-.313.326v.978c0 .18.14.327.313.327h.627v1.957c0 .275-.003.583-.69.642.04-.11.062-.228.063-.346v-.265c0-.557-.434-1.009-.97-1.01h-3.73V7.177h2.135c.897-.001 1.624-.758 1.625-1.692v-3.18C12.532 1.031 11.542 0 10.32 0H5.346C4.125.001 3.134 1.032 3.133 2.304v3.18c.001.935.729 1.692 1.626 1.693h2.134v3.262h-3.73c-.535.001-.969.453-.97 1.01v.265c.001.118.022.236.063.346-.687-.055-.69-.334-.69-.432V9.46h.627a.32.32 0 0 0 .314-.327v-.978a.32.32 0 0 0-.314-.326H.313A.32.32 0 0 0 0 8.156v.978c0 .18.14.327.313.327H.94v2.167c0 .41.203 1.095 1.567 1.095h.626l.01-.002.02.002h3.72v4.241H2.506a.32.32 0 0 0-.314.326c0 .18.14.326.314.326h.313v.06a.897.897 0 0 0-.313-.06c-.522-.002-.947.436-.95.98-.002.542.42.984.94.987.522.003.947-.436.95-.979 0-.073-.008-.146-.023-.218a.338.338 0 0 0 .023-.117v-.653h3.705c.018.006.036.01.055.012v.64c0 .041.008.08.022.118a1 1 0 0 0-.022.21c-.003.54.416.98.935.983.519.002.942-.434.944-.974.003-.499-.355-.92-.83-.977h.204a.305.305 0 0 0 .054-.012h3.392v.653c0 .04.009.08.023.117a1 1 0 0 0-.023.21c0 .54.421.978.94.978.52 0 .94-.438.94-.979 0-.54-.42-.979-.94-.979a.896.896 0 0 0-.313.06v-.06h.313a.32.32 0 0 0 .314-.326.32.32 0 0 0-.314-.326H8.784v-4.241h3.72l.02-.002c.006 0 .006.002.01.002h.626c.387 0 1.566 0 1.566-1.305V9.461h.627a.32.32 0 0 0 .313-.327v-.978a.32.32 0 0 0-.313-.326zM.627 8.808v-.326H1.88v.326H.627zm1.88 10.113a.32.32 0 0 1-.314-.326c0-.18.14-.326.314-.326a.32.32 0 0 1 .313.326.32.32 0 0 1-.313.326zm10.34-.652a.32.32 0 0 1 .313.326.32.32 0 0 1-.314.326.32.32 0 0 1-.313-.326c0-.18.14-.326.313-.326zM4.758 6.525c-.552 0-.998-.466-1-1.04v-3.18c.002-.913.712-1.652 1.587-1.653h4.974c.876.002 1.586.74 1.586 1.652v3.18c0 .575-.447 1.04-.998 1.04h-6.15zm3.388.652v3.262H7.52V7.177h.627zm-.616 9.776v-4.219h.605v4.219H7.53zm.506.675a.525.525 0 0 0-.204.13v-.13h.204zm.423.967a.32.32 0 0 1-.313.326.32.32 0 0 1-.314-.326c0-.18.14-.326.314-.326a.32.32 0 0 1 .313.326zm4.386-6.881a.352.352 0 0 1-.342.357h-3.99a.305.305 0 0 0-.054-.012H7.207a.305.305 0 0 0-.055.012h-3.99a.352.352 0 0 1-.342-.357v-.265a.352.352 0 0 1 .343-.357h9.34c.19 0 .342.16.343.357v.265zm2.194-2.906h-1.254v-.326h1.254v.326z"/>
</svg>
