<svg xmlns="http://www.w3.org/2000/svg" width="20" height="18" viewBox="0 0 20 18">
    <path fill="#FFF" fill-rule="nonzero" d="M18.506 13.929l-3.258-1.339a.641.641 0 0 1-.235-.243l2.175-.002c.038.003.935.081 1.654-.212a.947.947 0 0 0 .556-.603.899.899 0 0 0-.142-.798c-.621-.839-2.072-3.032-2.118-5.256 0-.038-.132-3.82-4.07-3.851a4.91 4.91 0 0 0-1.603.27 2.607 2.607 0 0 0-.496-.778C10.285.376 9.174 0 7.667 0 6.16 0 5.049.376 4.364 1.116c-.79.854-.716 1.89-.697 2.063v1.682c-.214.23-.334.526-.334.83v1.265c0 .385.185.744.5.983.305 1.147.944 2.011 1.167 2.289v1.046a.83.83 0 0 1-.459.734l-2.974 1.538C.6 14.047 0 15.006 0 16.051v1.34h20v-1.169c0-.977-.573-1.856-1.494-2.293zm-3.84 2.83h-14v-.708c0-.813.468-1.56 1.22-1.949l2.974-1.539c.498-.257.807-.751.807-1.289v-1.27l-.078-.088c-.008-.01-.825-.947-1.137-2.234l-.03-.126-.114-.07A.624.624 0 0 1 4 6.957V5.693a.61.61 0 0 1 .223-.467l.11-.094V3.162l-.003-.041c0-.009-.114-.885.535-1.588.553-.598 1.495-.9 2.802-.9 1.301 0 2.242.3 2.795.894a2.016 2.016 0 0 1 .497.972l.014.066a3.847 3.847 0 0 1 .03.234v.008a2.826 2.826 0 0 1 .006.185v.01c-.001.074-.006.118-.006.12L11 5.131l.11.094a.61.61 0 0 1 .223.466v1.265c0 .276-.19.517-.474.6l-.166.048-.053.157a6.49 6.49 0 0 1-.945 1.806 4.198 4.198 0 0 1-.279.342l-.083.09v1.304c0 .08.009.158.022.235.002.017.007.033.01.049a1.423 1.423 0 0 0 .16.42l.011.021c.049.081.104.158.168.229l.076.089h.013c.115.106.246.2.395.27l3.185 1.51c.798.379 1.294 1.14 1.294 1.986v.646zm4.667 0h-4v-.646c0-1.088-.637-2.065-1.662-2.551l-2.286-1.085a.515.515 0 0 0 .015-.396.567.567 0 0 0-.544-.367h-.739c-.015-.026-.025-.054-.037-.081-.017-.036-.037-.072-.048-.11a.786.786 0 0 1-.032-.22v-1.068A7.105 7.105 0 0 0 11.224 8.1c.47-.205.776-.646.776-1.144V5.692c0-.305-.12-.6-.333-.83V3.18a2.64 2.64 0 0 0-.028-.677c.429-.16.91-.242 1.43-.246 3.28.025 3.4 3.102 3.403 3.232.049 2.397 1.582 4.72 2.239 5.607a.3.3 0 0 1-.132.456c-.56.228-1.32.163-1.359.162h-2.294a.62.62 0 0 0-.523.276.55.55 0 0 0-.028.564c.104.2.288.466.591.61l3.25 1.334c.689.33 1.117.99 1.117 1.724v.537z"/>
</svg>
