<svg xmlns="http://www.w3.org/2000/svg" width="19" height="20" viewBox="0 0 19 20">
    <g fill="#FFF" fill-rule="nonzero">
        <path d="M2.463 5c1.238 0 2.263-.934 2.435-2.143h13.75c.195 0 .352-.16.352-.357a.354.354 0 0 0-.352-.357H4.898C4.726.933 3.7 0 2.463 0 1.105 0 0 1.122 0 2.5S1.105 5 2.463 5zm0-4.286c.97 0 1.76.801 1.76 1.786s-.79 1.786-1.76 1.786S.703 3.485.703 2.5 1.494.714 2.464.714zM16.537 15c-1.238 0-2.263.934-2.435 2.143H.352A.354.354 0 0 0 0 17.5c0 .198.158.357.352.357h13.75C14.274 19.067 15.3 20 16.537 20 17.895 20 19 18.878 19 17.5S17.895 15 16.537 15zm0 4.286c-.97 0-1.76-.801-1.76-1.786s.79-1.786 1.76-1.786 1.76.801 1.76 1.786-.79 1.786-1.76 1.786zM18.648 10.225h-6.556C11.953 8.975 10.877 8 9.572 8c-1.303 0-2.38.976-2.519 2.225H.352a.35.35 0 0 0-.352.347.35.35 0 0 0 .352.347h6.723A2.528 2.528 0 0 0 9.573 13a2.527 2.527 0 0 0 2.497-2.081h6.578a.35.35 0 0 0 .352-.347.35.35 0 0 0-.352-.347zm-9.075 2.081c-1.01 0-1.832-.81-1.832-1.806s.822-1.806 1.832-1.806c1.01 0 1.832.81 1.832 1.806s-.822 1.806-1.832 1.806z"/>
    </g>
</svg>
