<svg xmlns="http://www.w3.org/2000/svg" width="18" height="20" viewBox="0 0 18 20">
    <g fill="none" fill-rule="nonzero">
        <circle cx="8.667" cy="8.667" r="1" fill="#19C9A1"/>
        <circle cx="8.667" cy="8.667" r="1" fill="#19C9A1"/>
        <circle cx="8.667" cy="8.667" r="1" fill="#19C9A1"/>
        <circle cx="8.667" cy="8.667" r="1" fill="#19C9A1"/>
        <circle cx="7.333" cy="7.333" r="1" fill="#19C9A1"/>
        <circle cx="11.333" cy="7.333" r="1" fill="#19C9A1"/>
        <circle cx="6" cy="7.333" r="1" fill="#19C9A1"/>
        <circle cx="10" cy="7.333" r="1" fill="#19C9A1"/>
        <circle cx="8.667" cy="11.333" r="1" fill="#19C9A1"/>
        <circle cx="8.667" cy="12.667" r="1" fill="#19C9A1"/>
        <circle cx="8.667" cy="12.667" r="1" fill="#19C9A1"/>
        <circle cx="8.667" cy="15.333" r="1" fill="#19C9A1"/>
        <circle cx="8.667" cy="16.667" r="1" fill="#19C9A1"/>
        <circle cx="8.667" cy="18" r="1" fill="#19C9A1"/>
        <path fill="#FFF" d="M16.987 19.333h-1.04V18h-1.734v-3.407c0-.9-.465-1.736-1.244-2.236L9.292 10l3.677-2.357a2.656 2.656 0 0 0 1.244-2.236V2h1.734V.667h1.04a.34.34 0 0 0 .346-.334.34.34 0 0 0-.346-.333H.347A.34.34 0 0 0 0 .333a.34.34 0 0 0 .347.334h1.04V2H3.12v3.407c0 .9.465 1.736 1.244 2.236L8.042 10l-3.678 2.357a2.656 2.656 0 0 0-1.244 2.236V18H1.387v1.333H.347a.34.34 0 0 0-.347.334.34.34 0 0 0 .347.333h16.64a.34.34 0 0 0 .346-.333.34.34 0 0 0-.346-.334zm-14.907-18V.667h13.173v.666H2.08zm2.669 5.755a1.997 1.997 0 0 1-.936-1.68V2h9.707v3.407c0 .677-.35 1.305-.935 1.681L8.667 9.599 4.749 7.088zm-.936 7.505c0-.677.35-1.305.936-1.681l3.918-2.511 3.918 2.511c.585.376.935 1.004.935 1.68V18H3.813v-3.407zM2.08 18.667H15.253v.666H2.08v-.666z"/>
    </g>
</svg>
