<?xml version="1.0" encoding="UTF-8"?>
<svg width="32px" height="25px" viewBox="0 0 32 25" version="1.1" xmlns="http://www.w3.org/2000/svg" xmlns:xlink="http://www.w3.org/1999/xlink">
    <!-- Generator: Sketch 50.2 (55047) - http://www.bohemiancoding.com/sketch -->
    <title>Shape Copy</title>
    <desc>Created with Sketch.</desc>
    <defs></defs>
    <g id="All-Designs" stroke="none" stroke-width="1" fill="none" fill-rule="evenodd">
        <g id="Landing-Page_HD" transform="translate(-303.000000, -3080.000000)" fill="#FFFFFF" fill-rule="nonzero">
            <path d="M304.6,3094.0488 L329.5376,3094.0488 L320.9552,3102.35643 C320.3304,3102.96123 320.3304,3103.94199 320.9548,3104.5464 C321.5796,3105.1512 322.5932,3105.1512 323.218,3104.5464 L334.5312,3093.59501 C334.6056,3093.52299 334.672,3093.44362 334.7304,3093.35921 C334.7572,3093.3201 334.776,3093.2779 334.7992,3093.23724 C334.8256,3093.18923 334.856,3093.14354 334.8772,3093.09282 C334.9,3093.04055 334.9128,3092.98634 334.9288,3092.93213 C334.942,3092.88915 334.9592,3092.84811 334.9684,3092.80397 C334.9892,3092.7033 335,3092.60186 335,3092.50002 C335,3092.49886 334.9996,3092.4977 334.9996,3092.49654 C334.9992,3092.39626 334.9888,3092.29559 334.9684,3092.19685 C334.9588,3092.15039 334.9408,3092.10741 334.9268,3092.06172 C334.9112,3092.01022 334.8992,3091.95795 334.8776,3091.908 C334.8544,3091.85418 334.8232,3091.8054 334.7944,3091.75468 C334.7728,3091.71673 334.7556,3091.67801 334.7308,3091.64162 C334.6724,3091.55605 334.6052,3091.47628 334.5304,3091.40388 L323.2176,3080.45365 C322.5928,3079.84885 321.5796,3079.84885 320.9548,3080.45326 C320.33,3081.05806 320.33,3082.03882 320.9548,3082.644 L329.5372,3090.95125 L304.6,3090.95125 C303.7164,3090.95125 303,3091.64471 303,3092.50002 C303,3093.35534 303.7164,3094.0488 304.6,3094.0488 Z" id="Shape-Copy"></path>
        </g>
    </g>
</svg>