<?xml version="1.0" encoding="UTF-8"?>
<svg width="32px" height="25px" viewBox="0 0 32 25" version="1.1" xmlns="http://www.w3.org/2000/svg" xmlns:xlink="http://www.w3.org/1999/xlink">
    <!-- Generator: Sketch 50.2 (55047) - http://www.bohemiancoding.com/sketch -->
    <title>Shape Copy</title>
    <desc>Created with Sketch.</desc>
    <defs></defs>
    <g id="Symbols" stroke="none" stroke-width="1" fill="none" fill-rule="evenodd">
        <g id="Arrow_Black" fill="#4A4A4A" fill-rule="nonzero">
            <path d="M1.6,14.0488 L26.5376,14.0488 L17.9552,22.3564333 C17.3304,22.9612303 17.3304,23.9419925 17.9548,24.5464023 C18.5796,25.1511992 19.5932,25.1511992 20.218,24.5464023 L31.5312,13.5950087 C31.6056,13.5229906 31.672,13.4436159 31.7304,13.3592076 C31.7572,13.320101 31.776,13.2778968 31.7992,13.2372415 C31.8256,13.1892294 31.856,13.1435405 31.8772,13.0928181 C31.9,13.040547 31.9128,12.9863398 31.9288,12.9321327 C31.942,12.8891541 31.9592,12.8481116 31.9684,12.8039715 C31.9892,12.703301 32,12.6018562 32,12.5000242 C31.9992,12.3962562 31.9888,12.2955858 31.9684,12.1968513 C31.9588,12.1503881 31.9408,12.1074095 31.9268,12.0617207 C31.9112,12.0102239 31.8992,11.9579527 31.8776,11.9080047 C31.8544,11.8541847 31.8232,11.8053983 31.7944,11.7546759 C31.7728,11.7167309 31.7556,11.6780115 31.7308,11.6416152 C31.6724,11.5560454 31.6052,11.4762834 31.5304,11.4038781 L20.2176,0.45364612 C19.5928,-0.151150826 18.5796,-0.151150826 17.9548,0.453258926 C17.33,1.05805587 17.33,2.03881814 17.9548,2.64400228 L26.5372,10.9512484 L1.6,10.9512484 C0.7164,10.9512484 0,11.6447128 0,12.5000242 C0,13.3553356 0.7164,14.0488 1.6,14.0488 Z" id="Shape-Copy"></path>
        </g>
    </g>
</svg>