<svg xmlns="http://www.w3.org/2000/svg" width="105" height="135" viewBox="0 0 105 135">
    <g fill="#FFF" fill-rule="nonzero">
        <path d="M61.955 77.39a21.676 21.676 0 0 1-10.991 2.956c-12.048 0-21.877-9.502-21.877-21.855 0-12.036 5.179-20.905 10.463-30.935C47.265 12.67 50.119 7.285 50.858.422c0 0 3.594 4.33 3.065 10.453-.317 4.117-3.065 11.613-6.447 19.743-2.747 6.546-5.918 13.303-7.503 18.582-1.691 5.385-1.797 9.08-.74 13.514.423 1.584 1.057 3.273 1.902 4.751 6.024 10.875 19.763 10.136 20.82 9.925z"/>
        <path d="M61.427 50.256c3.382 2.428 3.276 5.701 3.276 5.701 0 3.801-3.065 6.863-6.87 6.863a6.852 6.852 0 0 1-6.869-6.863c0-.422.106-1.372.106-1.372 1.057-5.596 6.552-16.154 8.243-23.122 1.797-7.39-3.17-14.465-3.17-14.465s1.162 2.64-6.024 18.688c-3.277 7.496-5.39 12.247-6.447 15.203-1.163 3.168-1.057 5.596-1.057 6.546 0 8.341 6.764 14.993 15.113 14.993 8.243 0 14.902-6.758 14.902-14.993 0-8.13-7.081-13.303-11.309-15.837-2.536-1.478-2.536-3.906-2.536-3.906l-1.057 3.484c-1.163 3.906.317 6.863 3.065 8.763.317.106.528.211.634.317z"/>
        <g>
            <path d="M23.016 86.308c.527 0 .949.42.949.945v16.484c0 .525.105.944.421 1.26.316.314.738.42 1.265.42.21 0 .422 0 .738-.106.421-.105.843.21.948.63.106.42-.21.84-.632.945-.21 0-.316.105-.527.105-.527.105-.949.105-1.37.105-.843 0-1.581-.21-2.108-.735-.527-.525-.738-1.26-.738-2.1V87.149c0-.42.527-.84 1.054-.84zM31.131 88.198v-.945c0-.525.422-.945.949-.945.527 0 .949.42.949.945v.945a.943.943 0 0 1-.949.945.943.943 0 0 1-.949-.945zm0 17.953V93.238c0-.525.422-.945.949-.945.527 0 .949.42.949.945v12.913a.943.943 0 0 1-.949.945.943.943 0 0 1-.949-.945zM45.676 105.731c.105.42-.105.84-.422.945-.21.105-.421.21-.527.21-.316.105-.632.21-.948.21-.316.105-.738.105-1.16.105-.421 0-.843-.105-1.159-.21a2.04 2.04 0 0 1-.948-.525c-.317-.21-.527-.525-.738-.945-.21-.315-.21-.735-.21-1.26V93.658h-1.476a.719.719 0 0 1-.738-.734c0-.42.316-.735.738-.735h1.264v-3.99c0-.525.422-.945.949-.945.527 0 .948.42.948.945v3.99h2.635c.422 0 .738.315.738.735s-.316.734-.738.734H41.25v10.08c0 .525.211.944.633 1.26.316.21.738.42 1.264.42.527 0 1.054-.106 1.476-.316.422-.105.949.105 1.054.63zM56.637 105.731c.105.42-.105.84-.422.945-.21.105-.421.21-.527.21-.316.105-.632.21-.948.21-.316.105-.738.105-1.16.105-.421 0-.843-.105-1.159-.21a2.04 2.04 0 0 1-.948-.525c-.317-.21-.527-.525-.738-.945-.21-.315-.21-.735-.21-1.26V93.658h-1.266a.719.719 0 0 1-.737-.734c0-.42.316-.735.737-.735h1.265v-3.99c0-.525.422-.945.949-.945.527 0 .948.42.948.945v3.99h2.635c.422 0 .738.315.738.735s-.316.734-.738.734h-2.635v10.08c0 .525.211.944.633 1.26.316.21.737.42 1.264.42s1.054-.106 1.476-.316c.21-.105.738.105.843.63zM61.801 86.308c.527 0 .949.42.949.945v16.484c0 .525.105.944.422 1.26.316.314.737.42 1.264.42.211 0 .422 0 .738-.106.422-.105.843.21.949.63.105.42-.211.84-.633.945-.21 0-.316.105-.527.105-.527.105-.948.105-1.37.105-.843 0-1.58-.21-2.108-.735-.527-.525-.738-1.26-.738-2.1V87.149c.106-.42.527-.84 1.054-.84zM76.346 107.411c-1.054 0-2.108-.21-2.951-.63-.949-.42-1.687-.945-2.319-1.68a11.917 11.917 0 0 1-1.58-2.414c-.422-.945-.528-1.89-.528-2.94s.211-1.995.527-2.94c.422-.945.843-1.68 1.581-2.415.632-.735 1.476-1.26 2.319-1.68a7.095 7.095 0 0 1 2.95-.63c1.055 0 2.109.21 2.952.63.948.42 1.686.945 2.319 1.68.21.21.316.42.527.63 1.58 2.31-.106 5.46-2.951 5.46h-8.327c.106.84.211 1.575.527 2.205.316.63.738 1.26 1.265 1.784.527.525 1.054.84 1.686 1.155.633.315 1.37.42 2.003.42.527 0 .948-.105 1.475-.21a3.525 3.525 0 0 0 1.265-.525c.422-.21.738-.525 1.054-.84.21-.21.316-.42.422-.63.21-.314.527-.42.948-.314.527.105.843.84.422 1.364a.821.821 0 0 1-.422.42c-.421.42-.948.84-1.475 1.155-.527.315-1.16.63-1.792.735-.422.105-1.16.21-1.897.21zm2.846-8.504c1.475 0 2.424-1.68 1.686-2.94-.21-.315-.422-.735-.738-.945-.527-.42-1.054-.84-1.686-1.155-.633-.315-1.37-.42-2.003-.42a5.04 5.04 0 0 0-2.108.42c-.632.315-1.264.63-1.686 1.155-.527.525-.843 1.05-1.16 1.68-.315.63-.42 1.365-.526 2.205h8.22zM7.312 134.394c-1.16 0-2.213-.315-3.267-.84-.949-.63-1.792-1.365-2.319-2.31v1.995c0 .525-.421.84-.843.84a.83.83 0 0 1-.843-.84V114.34c0-.525.422-.945.949-.945.527 0 .948.42.948.945v8.084c.632-1.05 1.476-1.785 2.424-2.415.949-.63 2.003-.945 3.267-.945 1.054 0 2.003.21 2.846.63.843.42 1.581 1.05 2.108 1.785.632.735 1.054 1.575 1.37 2.52.316.945.422 1.89.422 2.834 0 1.05-.211 1.995-.527 2.94a6.227 6.227 0 0 1-1.476 2.415c-.632.735-1.37 1.26-2.213 1.68-.949.315-1.897.525-2.846.525zm-.421-1.68c.843 0 1.58-.21 2.213-.525.632-.315 1.265-.735 1.792-1.365.527-.525.843-1.155 1.159-1.89.316-.735.422-1.47.422-2.204 0-.735-.106-1.575-.422-2.205-.21-.735-.632-1.365-1.054-1.89a5.358 5.358 0 0 0-1.686-1.365c-.633-.315-1.37-.525-2.108-.525-.633 0-1.16.105-1.686.315-.527.21-.949.42-1.476.84a6.028 6.028 0 0 0-1.16 1.155c-.316.42-.632.945-.843 1.365v4.62c.106.524.317.944.633 1.47.316.42.738.84 1.16 1.154.42.315.948.63 1.475.735.527.21 1.054.315 1.58.315zM26.494 120.22c0 .42-.316.84-.843.945-.949.105-1.897.525-2.635 1.05-.948.735-1.686 1.575-2.108 2.835v8.294a.943.943 0 0 1-.948.945h-.106a.943.943 0 0 1-.948-.945v-13.019c0-.525.421-.945.948-.945.527 0 .949.42.949.945v2.625c.527-1.155 1.265-1.995 2.213-2.625.527-.315 1.054-.63 1.581-.735.21-.105.527-.105.843-.105.633-.21 1.054.21 1.054.735zM39.985 131.664c-.738.84-1.581 1.575-2.635 2.1-1.054.525-2.108.735-3.373.735-.738 0-1.37-.105-2.002-.315-.633-.21-1.16-.525-1.581-.945-.422-.42-.843-.945-1.054-1.47-.211-.525-.422-1.155-.422-1.785 0-.63.106-1.26.422-1.785a5.531 5.531 0 0 1 1.264-1.47c.527-.42 1.16-.734 2.003-.944.738-.21 1.58-.315 2.53-.315.737 0 1.58.105 2.318.21s1.476.315 2.108.525v-1.365c0-1.26-.422-2.31-1.16-3.15-.737-.735-1.791-1.155-3.056-1.155-.738 0-1.58.105-2.318.42-.633.21-1.16.525-1.792.84-.316.21-.843.105-1.054-.315-.21-.315-.105-.735.21-.945 1.687-1.05 3.373-1.575 5.06-1.575 1.897 0 3.372.525 4.426 1.575 1.054 1.05 1.581 2.52 1.581 4.305v8.399c0 .42-.421.84-.843.84s-.843-.42-.843-.84l.21-1.575zm-5.48 1.26c1.053 0 1.896-.21 2.74-.525.843-.42 1.475-.84 1.896-1.47.211-.21.317-.315.422-.525.105-.21.105-.42.105-.525v-2.415c-.632-.21-1.37-.42-2.002-.525-.738-.105-1.37-.21-2.108-.21-1.37 0-2.53.315-3.373.84-.843.525-1.264 1.365-1.264 2.205 0 .42.105.84.316 1.26.21.42.421.735.738 1.05.316.315.737.525 1.159.735.422 0 .843.105 1.37.105zM102.695 131.664c-.738.84-1.581 1.575-2.635 2.1-1.054.525-2.108.735-3.373.735-.738 0-1.37-.105-2.002-.315-.633-.21-1.16-.525-1.581-.945-.422-.42-.844-.945-1.054-1.47-.211-.525-.422-1.155-.422-1.785 0-.63.106-1.26.422-1.785a5.531 5.531 0 0 1 1.264-1.47c.527-.42 1.16-.734 2.003-.944.738-.21 1.58-.315 2.53-.315.737 0 1.58.105 2.318.21s1.476.315 2.108.525v-1.365c0-1.26-.422-2.31-1.16-3.15-.737-.735-1.791-1.155-3.056-1.155-.738 0-1.58.105-2.318.42-.633.21-1.16.525-1.792.84-.316.21-.843.105-1.054-.315-.21-.315-.106-.735.21-.945 1.687-1.05 3.373-1.575 5.06-1.575 1.897 0 3.372.525 4.426 1.575 1.054 1.05 1.581 2.52 1.581 4.305v8.399c0 .42-.421.84-.843.84s-.843-.42-.843-.84l.21-1.575zm-5.48 1.26c1.053 0 1.896-.21 2.74-.525.842-.42 1.475-.84 1.896-1.47.211-.21.317-.315.422-.525.105-.21.105-.42.105-.525v-2.415c-.632-.21-1.37-.42-2.002-.525-.738-.105-1.37-.21-2.108-.21-1.37 0-2.53.315-3.373.84-.843.525-1.264 1.365-1.264 2.205 0 .42.105.84.316 1.26.21.42.421.735.738 1.05.316.315.737.525 1.159.735.422 0 .948.105 1.37.105zM58.85 134.079a.943.943 0 0 1-.948-.945v-7.35c0-1.68-.316-2.94-.843-3.78-.633-.839-1.476-1.259-2.53-1.259-.527 0-1.054.105-1.686.315a4.423 4.423 0 0 0-1.476.945c-.527.42-.843.84-1.264 1.365-.317.525-.633 1.05-.738 1.68v8.084a.943.943 0 0 1-.949.945.943.943 0 0 1-.948-.945V114.34c0-.525.421-.945.948-.945.527 0 .949.42.949.945v8.294c.632-1.155 1.37-1.995 2.424-2.625a6.557 6.557 0 0 1 3.372-.945c.844 0 1.581.105 2.214.42.632.315 1.054.735 1.475 1.26.422.525.633 1.26.843 1.995.211.735.211 1.68.211 2.625v7.664c-.105.63-.527 1.05-1.054 1.05zM86.57 134.079a.943.943 0 0 1-.95-.945v-7.35c0-1.68-.316-3.044-.843-3.78-.527-.839-1.37-1.259-2.424-1.259-.527 0-1.159.105-1.58.315-.528.21-.95.525-1.37.84-.422.42-.844.84-1.16 1.365-.316.525-.527 1.05-.738 1.68v8.084a.943.943 0 0 1-.948.945.943.943 0 0 1-.949-.945v-7.35c0-1.784-.316-3.044-.843-3.884-.527-.84-1.37-1.155-2.424-1.155-1.16 0-2.108.42-2.951 1.155-.843.735-1.476 1.785-1.897 3.045v8.084a.943.943 0 0 1-.949.945.943.943 0 0 1-.948-.945v-13.019c0-.525.421-.84.843-.84a.83.83 0 0 1 .843.84v2.52c.632-1.155 1.37-1.995 2.424-2.625.949-.63 2.108-.945 3.267-.945 1.265 0 2.214.315 3.057 1.05.737.735 1.264 1.575 1.37 2.73 1.37-2.52 3.267-3.78 5.691-3.78.843 0 1.581.105 2.108.42a3.198 3.198 0 0 1 1.37 1.26c.316.525.633 1.26.738 1.995.21.735.21 1.68.21 2.625v7.664c0 .84-.42 1.26-.948 1.26z"/>
        </g>
    </g>
</svg>
