<svg xmlns="http://www.w3.org/2000/svg" width="131" height="90" viewBox="0 0 131 90">
    <g fill="#FFF" fill-rule="nonzero">
        <path d="M0 72.389c0-1.105.85-2.119 1.954-2.119h5.438c4.164 0 6.628 2.672 6.628 6.54v.092c0 4.33-3.144 6.633-7.052 6.633h-3.06v3.684c0 1.013-.594 1.934-1.529 2.119C1.105 89.614 0 88.6 0 87.31V72.39zm7.053 7.645c1.954 0 3.059-1.29 3.059-2.947v-.092c0-1.935-1.19-2.948-3.144-2.948H3.994v5.987h3.059zM21.66 87.101l5.77-15.148c.407-1.028 1.139-1.683 2.114-1.683h.163c.975 0 1.706.655 2.113 1.683l5.77 15.148c.326.842.326 1.403-.487 2.338-.244.28-.65.561-1.057.561-.894 0-1.381-.561-1.788-1.496l-1.056-3.086h-7.315l-1.138 3.18c-.325.841-.976 1.308-1.707 1.308-.975 0-1.707-.841-1.707-1.963.081-.187.163-.561.325-.842zm10.322-5.049l-2.275-6.358-2.276 6.358h4.551zM45.895 72.362c0-1.364 1.24-2.365 2.745-2a2.012 2.012 0 0 1 1.417 1.91v6.366l7.614-7.55c.531-.545 1.063-.818 1.771-.818 1.151 0 1.86.91 1.86 1.91 0 .637-.266 1.092-.709 1.546l-5.312 4.912 5.755 7.276c.354.363.531.818.531 1.455 0 1.182-.885 2-2.125 2-.797 0-1.328-.363-1.77-1l-5.402-7.003-2.39 2.183v3.82c0 .91-.62 1.728-1.417 1.91-1.417.454-2.745-.637-2.745-2.001l.177-14.916zM68.882 87.189V72.19c0-1.098.847-1.92 1.779-1.92h10.248c.677 0 1.355.457 1.61 1.097.507 1.371-.424 2.56-1.61 2.56h-8.046v4.024h6.606c.847 0 1.61.64 1.779 1.463.254 1.19-.593 2.195-1.694 2.195h-6.691v4.024h8.215c.847 0 1.525.64 1.779 1.463.254 1.189-.593 2.286-1.779 2.286H70.83c-1.101-.182-1.948-1.097-1.948-2.194zM96.106 74.047h-3.983c-.885 0-1.593-.553-1.859-1.474a1.879 1.879 0 0 1 1.859-2.303h12.037c.885 0 1.593.553 1.859 1.474a1.879 1.879 0 0 1-1.859 2.303h-3.894v13.172c0 1.013-.62 1.934-1.594 2.119-1.327.276-2.478-.737-2.478-1.935V74.047h-.088zM112.162 79.873c0-5.305 3.827-9.603 9.186-9.603 5.358 0 9.1 4.207 9.1 9.511v.092c0 5.304-3.827 9.51-9.185 9.51-5.359 0-9.101-4.298-9.101-9.51zm14.034 0c0-3.201-2.126-5.853-5.188-5.853s-5.104 2.56-5.104 5.67v.091c0 3.2 2.127 5.762 5.189 5.762 3.062 0 5.103-2.561 5.103-5.67z"/>
        <g transform="translate(38)">
            <path d="M18.737 47.594l2.29-2.179a1.464 1.464 0 0 0-.006-1.933 1.359 1.359 0 0 0-1.869-.163l-2.29 2.224a1.464 1.464 0 0 0 .006 1.933c.487.546 1.299.617 1.869.163v-.045zM26.771 45.885a1.542 1.542 0 0 0-.4 1.66c.213.584.755.98 1.373 1.006a1.527 1.527 0 0 0 1.449-.891c.259-.565.154-1.23-.266-1.687a1.522 1.522 0 0 0-2.156-.088zM22.493 50.187a1.542 1.542 0 0 0-.4 1.66c.214.584.755.98 1.373 1.006a1.527 1.527 0 0 0 1.449-.891c.259-.565.154-1.23-.265-1.687a1.522 1.522 0 0 0-2.157-.088z"/>
            <ellipse cx="19.25" cy="55.005" rx="1.528" ry="1.536" transform="rotate(-87.7 19.25 55.005)"/>
            <path d="M27.096 39.83a1.522 1.522 0 0 0-1.65-.403c-.58.215-.975.76-1 1.38a1.537 1.537 0 0 0 .886 1.458c.561.26 1.223.155 1.677-.267a1.543 1.543 0 0 0 .087-2.169z"/>
            <ellipse cx="8.25" cy="57.464" rx="1.528" ry="1.536"/>
            <path d="M15.656 43.955l2.303-2.214c.5-.544.5-1.4 0-1.945a1.373 1.373 0 0 0-1.867-.176l-2.294 2.204c-.471.56-.471 1.396 0 1.955a1.34 1.34 0 0 0 1.858.176zM9.56 50.102l2.3-2.197a1.493 1.493 0 0 0-.007-1.959 1.355 1.355 0 0 0-1.875-.165l-2.299 2.207a1.532 1.532 0 0 0 0 1.938c.492.551 1.304.627 1.881.176zM3.265 51.313L.96 53.52a1.54 1.54 0 0 0 0 1.95 1.396 1.396 0 0 0 1.87.176l2.307-2.209a1.492 1.492 0 0 0-.006-1.96 1.362 1.362 0 0 0-1.882-.165h.017zM13.615 50.092l-2.274 2.207a1.489 1.489 0 0 0 .032 1.934c.484.542 1.285.62 1.859.182l2.31-2.208a1.527 1.527 0 0 0 0-1.94 1.383 1.383 0 0 0-1.927-.175zM9.985 31.84a1.522 1.522 0 0 0-1.65-.402c-.58.214-.975.759-1 1.38a1.537 1.537 0 0 0 .886 1.457c.561.26 1.223.155 1.677-.267a1.543 1.543 0 0 0 .087-2.168z"/>
            <ellipse cx="14.361" cy="19.359" rx="1.528" ry="1.536" transform="rotate(-87.7 14.361 19.36)"/>
            <path d="M11.139 24.158a1.543 1.543 0 0 0 .06-2.16 1.522 1.522 0 0 0-2.146-.086 1.543 1.543 0 0 0-.11 2.158 1.524 1.524 0 0 0 2.196.088zM9.66 37.895a1.542 1.542 0 0 0-.4 1.66c.213.584.755.981 1.373 1.006a1.527 1.527 0 0 0 1.449-.891c.259-.565.154-1.23-.266-1.687a1.522 1.522 0 0 0-2.156-.088z"/>
            <ellipse cx="6.417" cy="43.328" rx="1.528" ry="1.536"/>
            <path d="M.493 45.885a1.542 1.542 0 0 0-.4 1.66c.214.584.755.98 1.373 1.006a1.527 1.527 0 0 0 1.449-.891c.259-.565.154-1.23-.265-1.687a1.522 1.522 0 0 0-2.157-.088zM6.373 26.27a1.402 1.402 0 0 0-1.876-.177l-2.315 2.213a1.542 1.542 0 0 0 0 1.954c.49.55 1.3.626 1.877.176l2.314-2.213a1.542 1.542 0 0 0 0-1.954zM16.08 31.636l-2.297 2.216a1.506 1.506 0 0 0 .032 1.942 1.348 1.348 0 0 0 1.848.182l2.296-2.207a1.466 1.466 0 0 0 0-1.957 1.374 1.374 0 0 0-1.88-.176zM39.499 16.045L55 22.125 50.088 5.851 34.833 0zM18.737 47.594l2.29-2.179a1.464 1.464 0 0 0-.006-1.933 1.359 1.359 0 0 0-1.869-.163l-2.29 2.224a1.464 1.464 0 0 0 .006 1.933c.487.546 1.299.617 1.869.163v-.045zM38.97 18.438l15.419 5.966-21.031 19.488a1.49 1.49 0 0 1-2.07-.128 1.506 1.506 0 0 1 .049-2.082l6.308-5.834a1.508 1.508 0 0 0 .085-2.125 1.493 1.493 0 0 0-2.116-.085l-4.588 4.258a1.49 1.49 0 0 1-2.024-.16 1.506 1.506 0 0 1 .003-2.04l7.023-6.514c.564-.571.58-1.488.035-2.078a1.49 1.49 0 0 0-2.066-.122L22.631 37.528a1.49 1.49 0 0 1-2.07-.127 1.506 1.506 0 0 1 .048-2.082L38.97 18.437zM26.771 45.885a1.542 1.542 0 0 0-.4 1.66c.213.584.755.98 1.373 1.006a1.527 1.527 0 0 0 1.449-.891c.259-.565.154-1.23-.266-1.687a1.522 1.522 0 0 0-2.156-.088zM22.493 50.187a1.542 1.542 0 0 0-.4 1.66c.214.584.755.98 1.373 1.006a1.527 1.527 0 0 0 1.449-.891c.259-.565.154-1.23-.265-1.687a1.522 1.522 0 0 0-2.157-.088z"/>
            <ellipse cx="19.25" cy="55.005" rx="1.528" ry="1.536" transform="rotate(-87.7 19.25 55.005)"/>
            <path d="M27.096 39.83a1.522 1.522 0 0 0-1.65-.403c-.58.215-.975.76-1 1.38a1.537 1.537 0 0 0 .886 1.458c.561.26 1.223.155 1.677-.267a1.543 1.543 0 0 0 .087-2.169z"/>
            <ellipse cx="8.25" cy="57.464" rx="1.528" ry="1.536"/>
            <path d="M15.656 43.955l2.303-2.214c.5-.544.5-1.4 0-1.945a1.373 1.373 0 0 0-1.867-.176l-2.294 2.204c-.471.56-.471 1.396 0 1.955a1.34 1.34 0 0 0 1.858.176zM9.56 50.102l2.3-2.197a1.493 1.493 0 0 0-.007-1.959 1.355 1.355 0 0 0-1.875-.165l-2.299 2.207a1.532 1.532 0 0 0 0 1.938c.492.551 1.304.627 1.881.176zM3.265 51.313L.96 53.52a1.54 1.54 0 0 0 0 1.95 1.396 1.396 0 0 0 1.87.176l2.307-2.209a1.492 1.492 0 0 0-.006-1.96 1.362 1.362 0 0 0-1.882-.165h.017zM13.615 50.092l-2.274 2.207a1.489 1.489 0 0 0 .032 1.934c.484.542 1.285.62 1.859.182l2.31-2.208a1.527 1.527 0 0 0 0-1.94 1.383 1.383 0 0 0-1.927-.175zM9.985 31.84a1.522 1.522 0 0 0-1.65-.402c-.58.214-.975.759-1 1.38a1.537 1.537 0 0 0 .886 1.457c.561.26 1.223.155 1.677-.267a1.543 1.543 0 0 0 .087-2.168z"/>
            <ellipse cx="14.361" cy="19.359" rx="1.528" ry="1.536" transform="rotate(-87.7 14.361 19.36)"/>
            <path d="M11.139 24.158a1.543 1.543 0 0 0 .06-2.16 1.522 1.522 0 0 0-2.146-.086 1.543 1.543 0 0 0-.11 2.158 1.524 1.524 0 0 0 2.196.088zM9.66 37.895a1.542 1.542 0 0 0-.4 1.66c.213.584.755.981 1.373 1.006a1.527 1.527 0 0 0 1.449-.891c.259-.565.154-1.23-.266-1.687a1.522 1.522 0 0 0-2.156-.088z"/>
            <ellipse cx="6.417" cy="43.328" rx="1.528" ry="1.536"/>
            <path d="M.493 45.885a1.542 1.542 0 0 0-.4 1.66c.214.584.755.98 1.373 1.006a1.527 1.527 0 0 0 1.449-.891c.259-.565.154-1.23-.265-1.687a1.522 1.522 0 0 0-2.157-.088zM6.373 26.27a1.402 1.402 0 0 0-1.876-.177l-2.315 2.213a1.542 1.542 0 0 0 0 1.954c.49.55 1.3.626 1.877.176l2.314-2.213a1.542 1.542 0 0 0 0-1.954zM16.08 31.636l-2.297 2.216a1.506 1.506 0 0 0 .032 1.942 1.348 1.348 0 0 0 1.848.182l2.296-2.207a1.466 1.466 0 0 0 0-1.957 1.374 1.374 0 0 0-1.88-.176zM32.52.615L17.826 14.409a1.366 1.366 0 0 0-.112 2.03 1.456 1.456 0 0 0 2.107.086l2.416-2.278a1.471 1.471 0 0 1 2.062.128c.542.6.52 1.528-.049 2.101L12.178 27.822c-.44.353-.647.926-.538 1.485a1.505 1.505 0 0 0 1.054 1.162 1.473 1.473 0 0 0 1.498-.427l9.656-9.06a1.471 1.471 0 0 1 1.924.24c.496.551.522 1.388.061 1.97l-5.32 4.992a1.534 1.534 0 0 0-.002 2.058 1.471 1.471 0 0 0 2.016.162l14.75-13.756L32.52.615z"/>
        </g>
    </g>
</svg>
