<svg xmlns="http://www.w3.org/2000/svg" width="15" height="11" viewBox="0 0 15 11">
    <path fill="#FFF" fill-rule="evenodd" d="M6.905 7.832c0 .91-.346 1.665-1.04 2.266-.694.601-1.56.902-2.601.902-.978 0-1.766-.279-2.365-.836C.299 9.607 0 8.814 0 7.788c0-.821.166-1.613.497-2.376a8.763 8.763 0 0 1 1.348-2.156c.567-.675 1.23-1.29 1.986-1.848A13.06 13.06 0 0 1 6.243 0L7 1.54c-.82.47-1.569 1.034-2.247 1.694A6.63 6.63 0 0 0 3.216 5.5c.316-.088.647-.132.993-.132.789 0 1.435.235 1.94.704.504.47.756 1.056.756 1.76zm8 0c0 .91-.346 1.665-1.04 2.266-.694.601-1.56.902-2.601.902-.978 0-1.766-.279-2.365-.836C8.299 9.607 8 8.814 8 7.788c0-.821.166-1.613.497-2.376a8.763 8.763 0 0 1 1.348-2.156c.567-.675 1.23-1.29 1.986-1.848A13.06 13.06 0 0 1 14.243 0L15 1.54c-.82.47-1.569 1.034-2.247 1.694A6.63 6.63 0 0 0 11.216 5.5c.316-.088.647-.132.993-.132.789 0 1.435.235 1.94.704.504.47.756 1.056.756 1.76z"/>
</svg>
