<svg xmlns="http://www.w3.org/2000/svg" width="63" height="61" viewBox="0 0 63 61">
    <g fill="none" fill-rule="evenodd" transform="translate(2 2)">
        <path fill="#7ED321" fill-rule="nonzero" d="M11.427 29.85c-.285-.27-.427-.675-.427-.945 0-.27.142-.675.427-.945l1.992-1.89c.57-.54 1.423-.54 1.993 0l.142.135 7.827 7.965c.284.27.711.27.996 0l19.07-18.765h.141c.57-.54 1.424-.54 1.993 0l1.992 1.89c.57.54.57 1.35 0 1.89l-22.77 22.41c-.284.27-.568.405-.995.405-.427 0-.712-.135-.996-.405l-11.1-11.34-.285-.405z"/>
        <ellipse cx="29.5" cy="28.5" stroke="#7ED321" stroke-width="3" rx="29.5" ry="28.5"/>
    </g>
</svg>
