<svg xmlns="http://www.w3.org/2000/svg" width="15" height="11" viewBox="0 0 15 11">
    <path fill="#FFF" fill-rule="evenodd" d="M8.095 3.168c0-.91.346-1.665 1.04-2.266C9.83.301 10.695 0 11.736 0c.978 0 1.766.279 2.365.836.6.557.899 1.35.899 2.376 0 .821-.166 1.613-.497 2.376a8.763 8.763 0 0 1-1.348 2.156c-.567.675-1.23 1.29-1.986 1.848A13.06 13.06 0 0 1 8.757 11L8 9.46c.82-.47 1.569-1.034 2.247-1.694A6.63 6.63 0 0 0 11.784 5.5a3.678 3.678 0 0 1-.993.132c-.789 0-1.435-.235-1.94-.704-.504-.47-.756-1.056-.756-1.76zm-8 0c0-.91.346-1.665 1.04-2.266C1.83.301 2.695 0 3.736 0c.978 0 1.766.279 2.365.836.6.557.899 1.35.899 2.376 0 .821-.166 1.613-.497 2.376a8.763 8.763 0 0 1-1.348 2.156c-.567.675-1.23 1.29-1.986 1.848A13.06 13.06 0 0 1 .757 11L0 9.46c.82-.47 1.569-1.034 2.247-1.694A6.63 6.63 0 0 0 3.784 5.5a3.678 3.678 0 0 1-.993.132c-.789 0-1.435-.235-1.94-.704-.504-.47-.756-1.056-.756-1.76z"/>
</svg>
