<svg xmlns="http://www.w3.org/2000/svg" width="32" height="25" viewBox="0 0 32 25">
    <path fill="#FFF" fill-rule="nonzero" d="M30.4 10.951H5.462l8.583-8.307a1.514 1.514 0 0 0 0-2.19 1.638 1.638 0 0 0-2.263 0L.469 11.405c-.075.072-.141.151-.2.236-.026.039-.045.081-.068.122-.027.048-.057.093-.078.144-.023.052-.036.107-.052.16-.013.044-.03.085-.04.129A1.5 1.5 0 0 0 0 12.5v.003c0 .1.011.201.032.3.01.047.027.09.041.135.016.052.028.104.05.154.023.054.054.103.083.153.021.038.038.077.063.113.059.086.126.166.2.238l11.313 10.95a1.638 1.638 0 0 0 2.263 0 1.515 1.515 0 0 0 0-2.19l-8.582-8.307H30.4c.884 0 1.6-.694 1.6-1.549s-.716-1.549-1.6-1.549z"/>
</svg>
