<?xml version="1.0" encoding="UTF-8"?>
<svg width="59px" height="59px" viewBox="0 0 59 59" version="1.1" xmlns="http://www.w3.org/2000/svg" xmlns:xlink="http://www.w3.org/1999/xlink">
    <!-- Generator: Sketch 50.2 (55047) - http://www.bohemiancoding.com/sketch -->
    <title>blockchain</title>
    <desc>Created with Sketch.</desc>
    <defs></defs>
    <g id="Symbols" stroke="none" stroke-width="1" fill="none" fill-rule="evenodd">
        <g id="Icons/Blockchain-White" fill="#FFFFFF" fill-rule="nonzero">
            <g id="blockchain">
                <path d="M52.1166667,37.3666667 L52.1166667,34.4166667 C52.1166667,30.4125333 49.1076667,27.1046 45.2333333,26.61785 L45.2333333,23.6 L47.2,23.6 C53.7067167,23.6 59,18.3067167 59,11.8 C59,5.29328333 53.7067167,0 47.2,0 L34.4166667,0 C32.7037,0 31.05465,0.382516667 29.5,1.10035 C27.94535,0.382516667 26.2963,0 24.5833333,0 L11.8,0 C5.29328333,0 0,5.29328333 0,11.8 C0,18.3067167 5.29328333,23.6 11.8,23.6 L13.7666667,23.6 L13.7666667,26.61785 C9.89233333,27.1046 6.88333333,30.4125333 6.88333333,34.4166667 L6.88333333,37.3666667 C4.17228333,37.3666667 1.96666667,39.5722833 1.96666667,42.2833333 L1.96666667,54.0833333 C1.96666667,56.7943833 4.17228333,59 6.88333333,59 L22.6166667,59 C25.3277167,59 27.5333333,56.7943833 27.5333333,54.0833333 L27.5333333,42.2833333 C27.5333333,39.5722833 25.3277167,37.3666667 22.6166667,37.3666667 L22.6166667,34.4166667 C22.6166667,30.4125333 19.6076667,27.1046 15.7333333,26.61785 L15.7333333,23.6 L24.5833333,23.6 C26.2963,23.6 27.94535,23.2174833 29.5,22.49965 C31.05465,23.2174833 32.7037,23.6 34.4166667,23.6 L43.2666667,23.6 L43.2666667,26.61785 C39.3923333,27.1046 36.3833333,30.4125333 36.3833333,34.4166667 L36.3833333,37.3666667 C33.6722833,37.3666667 31.4666667,39.5722833 31.4666667,42.2833333 L31.4666667,54.0833333 C31.4666667,56.7943833 33.6722833,59 36.3833333,59 L52.1166667,59 C54.8277167,59 57.0333333,56.7943833 57.0333333,54.0833333 L57.0333333,42.2833333 C57.0333333,39.5722833 54.8277167,37.3666667 52.1166667,37.3666667 Z M25.5666667,42.2833333 L25.5666667,54.0833333 C25.5666667,55.7097667 24.2431,57.0333333 22.6166667,57.0333333 L6.88333333,57.0333333 C5.2569,57.0333333 3.93333333,55.7097667 3.93333333,54.0833333 L3.93333333,42.2833333 C3.93333333,40.6569 5.2569,39.3333333 6.88333333,39.3333333 L22.6166667,39.3333333 C24.2431,39.3333333 25.5666667,40.6569 25.5666667,42.2833333 Z M20.65,34.4166667 L20.65,37.3666667 L8.85,37.3666667 L8.85,34.4166667 C8.85,31.1628167 11.49615,28.5166667 14.75,28.5166667 C18.00385,28.5166667 20.65,31.1628167 20.65,34.4166667 Z M29.0516,20.5506833 C27.6493667,21.2695 26.14585,21.6333333 24.5833333,21.6333333 L11.8,21.6333333 C6.3779,21.6333333 1.96666667,17.2221 1.96666667,11.8 C1.96666667,6.3779 6.3779,1.96666667 11.8,1.96666667 L24.5833333,1.96666667 C25.5283167,1.96666667 26.4497,2.09941667 27.3425667,2.36295 C26.7014333,2.8438 26.11045,3.38856667 25.5755167,3.99528333 C25.2470833,3.95398333 24.9147167,3.93333333 24.5833333,3.93333333 L11.8,3.93333333 C7.46251667,3.93333333 3.93333333,7.46251667 3.93333333,11.8 C3.93333333,16.1374833 7.46251667,19.6666667 11.8,19.6666667 L24.5833333,19.6666667 C25.1143333,19.6666667 25.6463167,19.6135667 26.1645333,19.5073667 C27.7005,19.1936833 29.09585,18.4306167 30.2021,17.3007667 C31.6515333,15.82085 32.45,13.8669667 32.45,11.8 C32.45,11.4125667 32.4126333,11.03005 32.3575667,10.6534333 C32.3477333,10.5836167 32.3388833,10.5147833 32.3270833,10.44595 C32.26415,10.0840833 32.1766333,9.73008333 32.0655167,9.38395 C32.0448667,9.31905 32.0202833,9.25611667 31.9976667,9.1922 C31.7459333,8.4783 31.3919333,7.80373333 30.9415667,7.1862 C30.9179667,7.15375 30.90125,7.11638333 30.8766667,7.08393333 C31.4106167,6.68076667 32.0055333,6.37396667 32.6407667,6.17336667 C33.8050333,7.82831667 34.4166667,9.76056667 34.4166667,11.8 C34.4166667,14.0488833 33.6722833,16.1679667 32.26415,17.9301 C31.3870167,19.0275 30.30535,19.90955 29.0516,20.5506833 Z M24.2077,17.7 L11.8,17.7 C8.54615,17.7 5.9,15.05385 5.9,11.8 C5.9,8.54615 8.54615,5.9 11.8,5.9 L24.2077,5.9 C23.1673333,7.68671667 22.6166667,9.69468333 22.6166667,11.8 C22.6166667,13.9053167 23.1673333,15.9132833 24.2077,17.7 Z M28.5166667,11.8 C28.5166667,11.5384333 28.5402667,11.2808 28.5737,11.0251333 C28.5815667,10.9631833 28.5904167,10.9012333 28.6012333,10.8402667 C28.6425333,10.5885333 28.69465,10.3387667 28.7674167,10.0958833 C28.7703667,10.0850667 28.7752833,10.0752333 28.7782333,10.0644167 C28.8500167,9.83038333 28.9404833,9.60323333 29.0417667,9.381 C29.0673333,9.32495 29.0929,9.2689 29.11945,9.21383333 C29.2305667,8.98668333 29.3525,8.76543333 29.4931167,8.55303333 C29.4950833,8.55008333 29.4980333,8.54615 29.5,8.5432 C29.5019667,8.54615 29.5049167,8.55008333 29.5068833,8.55303333 C29.6475,8.76445 29.7694333,8.98668333 29.88055,9.21285 C29.9080833,9.2689 29.93365,9.32495 29.9592167,9.381 C30.0595167,9.60323333 30.1499833,9.83038333 30.2217667,10.0634333 C30.2247167,10.07425 30.2296333,10.0840833 30.2325833,10.0949 C30.30535,10.3377833 30.3574667,10.5865667 30.3987667,10.8392833 C30.4086,10.9012333 30.41745,10.9631833 30.4263,11.0261167 C30.4597333,11.2817833 30.4833333,11.5384333 30.4833333,11.8 C30.4833333,12.0605833 30.4597333,12.3182167 30.4263,12.5729 C30.4184333,12.6358333 30.4086,12.6977833 30.3987667,12.7607167 C30.3574667,13.0114667 30.30535,13.26025 30.2325833,13.5031333 C30.22865,13.5159167 30.22275,13.5287 30.2188167,13.5414833 C30.1480167,13.7725667 30.0585333,13.9967667 29.9592167,14.21605 C29.9326667,14.2740667 29.9071,14.3311 29.8785833,14.3881333 C29.7674667,14.6133167 29.6465167,14.8345667 29.5068833,15.0459833 C29.5049167,15.0489333 29.5019667,15.0528667 29.4990167,15.0558167 C29.49705,15.0518833 29.4941,15.0489333 29.49115,15.0459833 C29.3515167,14.8345667 29.2295833,14.6133167 29.11945,14.3881333 C29.0919167,14.3311 29.0653667,14.2740667 29.0398,14.2170333 C28.9404833,13.9967667 28.851,13.7725667 28.7792167,13.5414833 C28.7752833,13.5287 28.7693833,13.5159167 28.76545,13.5031333 C28.6926833,13.2612333 28.6405667,13.0114667 28.5992667,12.7607167 C28.5894333,12.6987667 28.5805833,12.6368167 28.5717333,12.5748667 C28.5402667,12.3192 28.5166667,12.0615667 28.5166667,11.8 Z M34.4166667,21.6333333 C33.4716833,21.6333333 32.5503,21.5005833 31.6574333,21.23705 C32.2985667,20.7562 32.88955,20.2114333 33.4244833,19.6047167 C33.7529167,19.6460167 34.0852833,19.6666667 34.4166667,19.6666667 L47.2,19.6666667 C51.5374833,19.6666667 55.0666667,16.1374833 55.0666667,11.8 C55.0666667,7.46251667 51.5374833,3.93333333 47.2,3.93333333 L34.4166667,3.93333333 C33.8856667,3.93333333 33.3536833,3.98643333 32.8354667,4.09263333 C31.2995,4.40631667 29.90415,5.16938333 28.7979,6.29923333 C27.3484667,7.77915 26.55,9.73205 26.55,11.8 C26.55,12.1874333 26.5873667,12.5689667 26.6424333,12.9465667 C26.6522667,13.0163833 26.6611167,13.0852167 26.6729167,13.15405 C26.73585,13.5159167 26.8233667,13.8699167 26.9354667,14.21605 C26.9561167,14.28095 26.9807,14.3438833 27.0033167,14.4078 C27.2540667,15.1217 27.6080667,15.7952833 28.0594167,16.4128167 C28.084,16.44625 28.1007167,16.4836167 28.1253,16.51705 C27.59135,16.9202167 26.9964333,17.2270167 26.3612,17.4276167 C25.1949667,15.7716833 24.5833333,13.8394333 24.5833333,11.8 C24.5833333,9.55111667 25.3277167,7.43203333 26.73585,5.6699 C27.6129833,4.5725 28.6936667,3.69045 29.9484,3.04833333 C31.3506333,2.3305 32.85415,1.96666667 34.4166667,1.96666667 L47.2,1.96666667 C52.6221,1.96666667 57.0333333,6.3779 57.0333333,11.8 C57.0333333,17.2221 52.6221,21.6333333 47.2,21.6333333 L34.4166667,21.6333333 Z M34.7923,5.9 L47.2,5.9 C50.45385,5.9 53.1,8.54615 53.1,11.8 C53.1,15.05385 50.45385,17.7 47.2,17.7 L34.7923,17.7 C35.8326667,15.9132833 36.3833333,13.9053167 36.3833333,11.8 C36.3833333,9.69468333 35.8326667,7.68671667 34.7923,5.9 Z M38.35,34.4166667 C38.35,31.1628167 40.99615,28.5166667 44.25,28.5166667 C47.50385,28.5166667 50.15,31.1628167 50.15,34.4166667 L50.15,37.3666667 L38.35,37.3666667 L38.35,34.4166667 Z M55.0666667,54.0833333 C55.0666667,55.7097667 53.7431,57.0333333 52.1166667,57.0333333 L36.3833333,57.0333333 C34.7569,57.0333333 33.4333333,55.7097667 33.4333333,54.0833333 L33.4333333,42.2833333 C33.4333333,40.6569 34.7569,39.3333333 36.3833333,39.3333333 L52.1166667,39.3333333 C53.7431,39.3333333 55.0666667,40.6569 55.0666667,42.2833333 L55.0666667,54.0833333 Z" id="Shape"></path>
                <path d="M14.75,41.3 C12.03895,41.3 9.83333333,43.5056167 9.83333333,46.2166667 C9.83333333,47.7536167 10.5747667,49.2069833 11.8,50.12935 L11.8,54.0833333 C11.8,54.6261333 12.23955,55.0666667 12.7833333,55.0666667 L16.7166667,55.0666667 C17.26045,55.0666667 17.7,54.6261333 17.7,54.0833333 L17.7,50.12935 C18.9252333,49.206 19.6666667,47.7536167 19.6666667,46.2166667 C19.6666667,43.5056167 17.46105,41.3 14.75,41.3 Z M16.22205,48.75465 C15.9191833,48.9306667 15.7333333,49.2541833 15.7333333,49.60425 L15.7333333,53.1 L13.7666667,53.1 L13.7666667,49.60425 C13.7666667,49.2541833 13.5808167,48.9306667 13.27795,48.75465 C12.3526333,48.2157833 11.8,47.2668667 11.8,46.2166667 C11.8,44.5902333 13.1235667,43.2666667 14.75,43.2666667 C16.3764333,43.2666667 17.7,44.5902333 17.7,46.2166667 C17.7,47.2668667 17.1473667,48.2157833 16.22205,48.75465 Z" id="Shape"></path>
                <path d="M44.25,41.3 C41.53895,41.3 39.3333333,43.5056167 39.3333333,46.2166667 C39.3333333,47.7536167 40.0747667,49.2069833 41.3,50.12935 L41.3,54.0833333 C41.3,54.6261333 41.73955,55.0666667 42.2833333,55.0666667 L46.2166667,55.0666667 C46.76045,55.0666667 47.2,54.6261333 47.2,54.0833333 L47.2,50.12935 C48.4252333,49.206 49.1666667,47.7536167 49.1666667,46.2166667 C49.1666667,43.5056167 46.96105,41.3 44.25,41.3 Z M45.72205,48.75465 C45.4191833,48.9306667 45.2333333,49.2541833 45.2333333,49.60425 L45.2333333,53.1 L43.2666667,53.1 L43.2666667,49.60425 C43.2666667,49.2541833 43.0808167,48.9306667 42.77795,48.75465 C41.8526333,48.2157833 41.3,47.2668667 41.3,46.2166667 C41.3,44.5902333 42.6235667,43.2666667 44.25,43.2666667 C45.8764333,43.2666667 47.2,44.5902333 47.2,46.2166667 C47.2,47.2668667 46.6473667,48.2157833 45.72205,48.75465 Z" id="Shape"></path>
                <rect id="Rectangle-path" x="21.6333333" y="53.1" width="1.96666667" height="1.96666667"></rect>
                <rect id="Rectangle-path" x="51.1333333" y="53.1" width="1.96666667" height="1.96666667"></rect>
            </g>
        </g>
    </g>
</svg>