<?xml version="1.0" encoding="UTF-8"?>
<svg width="60px" height="54px" viewBox="0 0 60 54" version="1.1" xmlns="http://www.w3.org/2000/svg" xmlns:xlink="http://www.w3.org/1999/xlink">
    <!-- Generator: Sketch 50.2 (55047) - http://www.bohemiancoding.com/sketch -->
    <title>cloud-computing (2)</title>
    <desc>Created with Sketch.</desc>
    <defs></defs>
    <g id="Symbols" stroke="none" stroke-width="1" fill="none" fill-rule="evenodd">
        <g id="Icons/Cloud-White" transform="translate(0.000000, -3.000000)" fill="#FFFFFF" fill-rule="nonzero">
            <g id="cloud-computing-(2)" transform="translate(0.000000, 3.000000)">
                <g id="Group-15">
                    <path d="M34.5677454,34.432759 L29.221209,42.5242464 L25.4482512,39.2624913 C25.0402863,38.9092435 24.4393265,38.9736534 24.1039737,39.4013751 C23.7686209,39.8311095 23.827857,40.4661504 24.2367772,40.8173854 L28.8094225,44.7715463 C28.9804429,44.9204941 29.1954126,45 29.4151595,45 C29.4581534,45 29.5021028,44.9969808 29.5460522,44.989936 C29.8097484,44.9516926 30.0466928,44.7987192 30.1995602,44.5682527 L36.1365468,35.5820722 C36.4375045,35.1261712 36.3314527,34.4991816 35.8976915,34.181158 C35.4639304,33.8621279 34.8696585,33.9758516 34.5677454,34.432759 Z" id="Shape"></path>
                    <path d="M30.097166,27 C22.9849742,27 17.1983806,33.0563077 17.1983806,40.5 C17.1983806,47.9436923 22.9849742,54 30.097166,54 C37.2093578,54 42.9959514,47.9436923 42.9959514,40.5 C42.9959514,33.0563077 37.2093578,27 30.097166,27 Z M30.097166,51.9230769 C24.0793865,51.9230769 19.1828091,46.7982692 19.1828091,40.5 C19.1828091,34.2017308 24.0793865,29.0769231 30.097166,29.0769231 C36.1149455,29.0769231 41.0115229,34.2017308 41.0115229,40.5 C41.0115229,46.7982692 36.1149455,51.9230769 30.097166,51.9230769 Z" id="Shape"></path>
                    <path d="M50.3283536,16.59885 C49.8080389,7.37385 42.483153,0 33.6516254,0 C28.290508,0 23.0992086,2.729575 19.8825382,7.1832 C19.8084896,7.143225 19.7295045,7.11555 19.6544686,7.077625 C19.4609549,6.98025 19.2654667,6.888 19.0650418,6.804975 C18.9485387,6.7568 18.830061,6.71375 18.7115833,6.6707 C18.5170823,6.599975 18.3196194,6.53745 18.1191946,6.481075 C18.0007169,6.448275 17.8832265,6.41445 17.7637614,6.38575 C17.5465522,6.3345 17.3253938,6.29555 17.1022607,6.261725 C16.9985927,6.245325 16.895912,6.224825 16.7912567,6.212525 C16.4644556,6.173575 16.1337053,6.15 15.797031,6.15 C10.8979768,6.15 6.91120108,10.287925 6.91120108,15.375 C6.91120108,15.507225 6.9190996,15.636375 6.92699811,15.765525 C2.82075735,18.0892 0,22.958975 0,27.83285 C0,35.092925 5.6889058,41 12.682054,41 C13.2270516,41 13.6693684,40.541825 13.6693684,39.975 C13.6693684,39.408175 13.2270516,38.95 12.682054,38.95 C6.77791363,38.95 1.97462888,33.963375 1.97462888,27.83285 C1.97462888,23.575 4.64531444,19.1552 8.32503536,17.323525 L8.88582996,17.04575 L8.88582996,16.4 C8.88582996,16.273925 8.89372848,16.144775 8.90063968,16.015625 L8.90952551,15.8383 L8.89767773,15.63125 C8.89175385,15.546175 8.88582996,15.4611 8.88582996,15.375 C8.88582996,11.419525 11.9859973,8.2 15.797031,8.2 C16.1021112,8.2 16.4032421,8.227675 16.7023984,8.268675 C16.7794089,8.278925 16.8564194,8.29225 16.93343,8.305575 C17.1970429,8.350675 17.4567066,8.410125 17.7124211,8.485975 C17.7469771,8.496225 17.7825204,8.5034 17.8170764,8.51365 C18.098461,8.602825 18.3729344,8.7166 18.6414839,8.842675 C18.710596,8.875475 18.7787206,8.910325 18.8468453,8.945175 C19.0847881,9.06715 19.3177943,9.201425 19.542902,9.353125 C21.4444696,10.63335 22.7082321,12.852475 22.7082321,15.375 C22.7082321,15.941825 23.150549,16.4 23.6955466,16.4 C24.2405441,16.4 24.682861,15.941825 24.682861,15.375 C24.682861,12.55215 23.4526672,10.025525 21.5234548,8.332225 C24.353098,4.488475 29.0151968,2.05 33.6516254,2.05 C41.2983757,2.05 47.6497695,8.338375 48.3112702,16.2852 C47.3022348,16.2114 45.7906564,16.173475 44.2800653,16.4123 C43.7409916,16.497375 43.3707487,17.020125 43.4526958,17.579775 C43.5267444,18.08715 43.9473404,18.451025 44.4271752,18.451025 C44.4765409,18.451025 44.5268939,18.446925 44.577247,18.438725 C46.7730343,18.09535 49.0636038,18.4172 49.2018278,18.436675 C53.7987638,19.3438 57.2642375,23.740025 57.2642375,28.6713 C57.2642375,34.338525 52.8223099,38.95 47.3634483,38.95 C46.8184507,38.95 46.3761339,39.408175 46.3761339,39.975 C46.3761339,40.541825 46.8184507,41 47.3634483,41 C53.9113177,41 59.2388664,35.4691 59.2388664,28.6713 C59.2388664,23.045075 55.460414,17.999 50.3283536,16.59885 Z" id="Shape"></path>
                </g>
            </g>
        </g>
    </g>
</svg>