<?xml version="1.0" encoding="UTF-8"?>
<svg width="55px" height="59px" viewBox="0 0 55 59" version="1.1" xmlns="http://www.w3.org/2000/svg" xmlns:xlink="http://www.w3.org/1999/xlink">
    <!-- Generator: Sketch 50.2 (55047) - http://www.bohemiancoding.com/sketch -->
    <title>atomic</title>
    <desc>Created with Sketch.</desc>
    <defs></defs>
    <g id="Symbols" stroke="none" stroke-width="1" fill="none" fill-rule="evenodd">
        <g id="Icons/Datascience-White" transform="translate(-2.000000, 0.000000)" fill="#FFFFFF" fill-rule="nonzero">
            <g id="atomic" transform="translate(2.000000, 0.000000)">
                <path d="M27.7192982,23 C23.4560275,23 20,26.4642684 20,30.7377049 C20,35.0111414 23.4560275,38.4754098 27.7192982,38.4754098 C31.982569,38.4754098 35.4385965,35.0111414 35.4385965,30.7377049 C35.4337343,26.4663086 31.9805336,23.0048738 27.7192982,23 Z M26.7894454,36.6065007 C23.5920206,36.6065007 21,34.0082994 21,30.8032504 C21,27.5982013 23.5920206,25 26.7894454,25 C29.9868702,25 32.5788908,27.5982013 32.5788908,30.8032504 C32.5753855,34.0069392 29.9854002,36.6031004 26.7894454,36.6065007 Z" id="Shape"></path>
                <path d="M26.8596717,27 C24.7290669,27.0024936 23.0023746,28.7331899 23,30.8688751 C23,31.4030798 23.4320688,31.8360656 23.9648897,31.8360656 C24.4978236,31.8360656 24.9297793,31.4030798 24.9297793,30.8688751 C24.930797,29.8009191 25.7942562,28.9355144 26.8596717,28.9343809 C27.3926056,28.9343809 27.8245614,28.5013951 27.8245614,27.9671904 C27.8245614,27.4329858 27.3926056,27 26.8596717,27 Z" id="Shape"></path>
                <path d="M54.8318229,13.6075664 C54.3327225,11.9493438 52.8141343,10.815668 51.0932049,10.8167051 C50.1523417,10.8203926 49.2448968,11.1687461 48.5405942,11.7968887 C45.796858,10.4207598 42.1207277,9.97664648 37.9276434,10.4114258 C35.2609296,4.01015625 31.2455804,0 26.6780277,0 C22.1070416,0 18.0891746,4.01580273 15.4224609,10.4253691 C14.1934218,10.2948086 12.9574015,10.2436445 11.7219535,10.2721074 C10.9997972,8.54716406 9.17048719,7.57366406 7.34827285,7.94460352 C5.52605851,8.31554297 4.21599147,9.92813281 4.21610591,11.8 C4.21610591,11.9027891 4.23853739,11.9993555 4.2462053,12.1001855 C2.88326405,12.8513984 1.75470887,13.9692871 0.986316263,15.3290527 C-0.960186779,18.9017793 -0.0055900085,23.7287168 3.67534704,28.9209473 C3.81291152,29.115002 3.97462417,29.3065215 4.11859765,29.5 C3.97462417,29.6934785 3.81291152,29.884998 3.67534704,30.0790527 C-0.00547556218,35.2712832 -0.960186779,40.0982207 0.985858478,43.6700254 C2.77694342,46.9657285 6.78920257,48.7427578 12.3661718,48.7427578 C12.8363173,48.7427578 13.3176786,48.7299668 13.8101411,48.7043848 C14.3355641,48.6773047 14.8775819,48.6169219 15.4169674,48.5614941 C18.0835667,54.978666 22.1039516,59 26.6780277,59 C28.3990715,58.9796035 30.0725056,58.4285527 31.4729853,57.4212891 C32.0849298,57.8077852 32.7919791,58.0139395 33.5142499,58.0167051 C35.6706475,58.0141699 37.4182428,56.2546563 37.4206462,54.0834102 C37.4168694,53.1445957 37.076735,52.2387383 36.4628449,51.5322363 C36.9968514,50.5686465 37.4767249,49.5756719 37.9001763,48.5579219 C38.4530664,48.6154238 39.0079022,48.676498 39.5460288,48.7042695 C40.0386058,48.7297363 40.519967,48.7425273 40.9899981,48.7426426 C46.5659373,48.7426426 50.5792265,46.9656133 52.3697392,43.6709473 C54.3162422,40.0982207 53.3616455,35.2712832 49.6807084,30.0790527 C49.5508118,29.8957148 49.3977971,29.7150273 49.2620638,29.5322656 C52.2761221,25.4921484 53.7674721,21.4522617 53.2610471,18.0187383 C54.6929995,17.0575684 55.3310378,15.2657891 54.8318229,13.6075664 Z M39.101916,19.9094531 C37.594429,18.8816777 36.0090041,17.9032227 34.3557126,16.9902207 C32.9123156,16.195334 31.4561006,15.4714316 30,14.818168 C32.3563353,14.001502 34.7788206,13.3931797 37.2399888,13 C38.0503832,15.2470703 38.6732001,17.5582109 39.101916,19.9094531 Z M38.9156223,22.8232578 C39.2333253,25.2424883 39.3924057,27.6801563 39.3918335,30.1204746 C39.392978,32.5619453 39.238361,35.0008809 38.9287837,37.4223008 C36.9702638,38.8554707 34.923048,40.1617676 32.7997253,41.3332402 C30.823924,42.4188633 28.7857495,43.3852188 26.6960741,44.2273516 C24.6066276,43.3852188 22.568682,42.4188633 20.5931095,41.3332402 C18.4732203,40.1608457 16.4301246,38.8530508 14.476297,37.4176914 C13.8412343,32.5738145 13.8412343,27.6670195 14.476297,22.8231426 C18.2526823,20.0464551 22.3578718,17.7544434 26.6971041,16 C28.7858639,16.8477793 30.8233518,17.8187441 32.7988098,18.907709 C34.918699,20.0799883 36.9617947,21.3878984 38.9156223,22.8232578 Z M27.1759628,2 C30.7414235,2 34.0175639,5.38938867 36.3496366,10.726584 C33.2112895,11.266918 30.1362313,12.1299082 27.1728727,13.3021875 C24.2103152,12.1327891 21.1366303,11.2715273 18,10.7316543 C20.3323016,5.39146289 23.6093576,2 27.1759628,2 Z M16.8626139,13 C19.3289321,13.3846523 21.7562242,13.9899785 24.115764,14.808834 C22.6606934,15.4629043 21.1999006,16.1906094 19.7454023,16.9927559 C18.0923396,17.9055273 16.5072581,18.8838672 15,19.9115273 C15.4288304,17.5594785 16.0518761,15.2476465 16.8626139,13 Z M7.95325538,10 C9.03202641,10 9.90651075,10.8805059 9.90651075,11.9667051 C9.90651075,13.0529043 9.03202641,13.9334102 7.95325538,13.9334102 C6.87448435,13.9334102 6,13.0529043 6,11.9667051 C6.00114446,10.8809668 6.87494213,10.0011523 7.95325538,10 Z M2.74858551,17.0477738 C3.27332189,16.1144906 4.02397532,15.329975 4.93084797,14.7672855 C5.84126846,16.1378832 7.50646245,16.7878051 9.0964652,16.3932426 C10.6864679,15.9986801 11.8609161,14.6439848 12.0345312,13.0043148 C12.9402594,12.9879516 13.8462164,13.018143 14.7488546,13.0946586 C13.7681641,15.9517797 13.0680959,18.8987836 12.6589503,21.8934945 C10.004139,23.8829008 7.57547358,26.1611996 5.41724484,28.6870219 C5.38474208,28.64185 5.34583033,28.5971391 5.31367092,28.5518519 C2.09280808,24.008391 1.18147202,19.9233324 2.74858551,17.0477738 Z M12.7028602,35.2294746 C10.6249728,33.549127 8.71497813,31.6686172 7,29.6147949 C8.71497813,27.5608574 10.6249728,25.6803477 12.7028602,24 C12.5356541,25.8141348 12.4450127,27.6887676 12.4450127,29.6147949 C12.4450127,31.5408223 12.5356541,33.4154551 12.7028602,35.2294746 Z M13.7587982,47.6538984 C8.22337294,47.9424453 4.31079653,46.5144609 2.74814645,43.6384414 C1.18171965,40.7638047 2.09294126,36.6787461 5.31368965,32.1351699 C5.34584907,32.0898828 5.38476082,32.0451719 5.41726357,32 C7.57560676,34.5258223 10.0041577,36.8041211 12.658969,38.7934121 C13.0670846,41.7790195 13.7640627,44.7172656 14.7398321,47.5663203 C14.4134312,47.5940918 14.0792479,47.6374199 13.7587982,47.6538984 Z M15,40 C16.507487,41.0276602 18.0929118,42.0061152 19.7463179,42.919002 C21.1926905,43.7161934 22.6537122,44.4294941 24.1155351,45.085293 C21.7535919,45.903457 19.3241254,46.5084375 16.8558616,46.8930898 C16.0484428,44.6512051 15.4276859,42.3454805 15,40 Z M33.9532554,56.9334102 C32.8744843,56.9334102 32,56.0529043 32,54.9667051 C32,53.8805059 32.8744843,53 33.9532554,53 C35.0320264,53 35.9065108,53.8805059 35.9065108,54.9667051 C35.9053663,56.0524434 35.0314542,56.932373 33.9532554,56.9334102 Z M35.3603626,50.6804746 C34.9323333,50.5168418 34.4787826,50.4309922 34.0209973,50.4271895 C31.8645997,50.4297246 30.1170043,52.1892383 30.114601,54.3604844 C30.1190644,55.0170898 30.2887883,55.6618262 30.6079791,56.234541 C29.5916957,56.9136172 28.4042007,57.2868613 27.1847751,57.3104844 C23.6137065,57.3104844 20.3328738,53.9106094 18,48.5590098 C21.140636,48.0255898 24.2184409,47.1680156 27.1847751,46 C30.1596928,47.1715879 33.2468823,48.0306602 36.3971318,48.5633887 C36.0717609,49.3034238 35.7262475,50.0092344 35.3603626,50.6804746 Z M37.2914896,46.9099141 C34.8121245,46.5256074 32.3720145,45.9187832 30,45.0969316 C31.4621662,44.4410176 32.9233024,43.7276016 34.3700184,42.9301797 C36.044368,42.0051934 37.6366597,41.0232812 39.1393399,40 C38.7198942,42.3521641 38.1016551,44.6637656 37.2914896,46.9099141 Z M51.0251039,43.6148184 C49.4624539,46.4894551 45.5483896,47.9135215 40.01491,47.6293535 C39.6832445,47.6121836 39.3378455,47.5679336 39,47.5387793 C39.9803472,44.6969844 40.6833909,41.7658828 41.0994033,38.7868437 C43.7649726,36.8005488 46.2049682,34.5245547 48.3752138,32 C48.4017653,32.0371055 48.4338103,32.0736348 48.460133,32.1107402 C51.6807669,36.6542012 52.592103,40.7392598 51.0251039,43.6148184 Z M41.0113302,24 C43.0956266,25.6856484 45.0108858,27.572957 46.7295262,29.6348457 C45.0036757,31.6898203 43.0849831,33.5722891 41,35.256209 C41.1743017,33.415916 41.2690633,31.5302207 41.2690633,29.6146797 C41.2691777,27.6886523 41.1785363,25.8140195 41.0113302,24 Z M48.353469,28.7607777 C46.189289,26.2237777 43.752498,23.9362601 41.0876154,21.9399398 C40.6785842,18.9475336 39.9794316,16.0027191 39,13.1476723 C41.9690809,12.7592172 44.9876027,13.140182 47.7696783,14.2546137 C47.6143746,14.6756801 47.5327744,15.1207152 47.5284255,15.5698988 C47.5309433,17.7411449 49.2784242,19.5007738 51.4348218,19.5031937 C51.5290111,19.5031937 51.6174781,19.4818754 51.7100652,19.4751918 C51.9840497,22.2053246 50.7483727,25.4462914 48.353469,28.7607777 Z M50.9532554,16.9334102 C49.8744843,16.9334102 49,16.0529043 49,14.9667051 C49.00103,13.8809668 49.8749421,13.0011523 50.9532554,13 C52.0320264,13 52.9065108,13.8805059 52.9065108,14.9667051 C52.9065108,16.0529043 52.031912,16.9334102 50.9532554,16.9334102 Z" id="Shape"></path>
            </g>
        </g>
    </g>
</svg>