<?xml version="1.0" encoding="UTF-8"?>
<svg width="57px" height="57px" viewBox="0 0 57 57" version="1.1" xmlns="http://www.w3.org/2000/svg" xmlns:xlink="http://www.w3.org/1999/xlink">
    <!-- Generator: Sketch 50.2 (55047) - http://www.bohemiancoding.com/sketch -->
    <title>smartphone (1)</title>
    <desc>Created with Sketch.</desc>
    <defs></defs>
    <g id="Symbols" stroke="none" stroke-width="1" fill="none" fill-rule="evenodd">
        <g id="Icons/Mobility-White" transform="translate(-1.000000, -1.000000)" fill="#FFFFFF" fill-rule="nonzero">
            <g id="smartphone-(1)" transform="translate(1.000000, 1.000000)">
                <path d="M39.8541176,0 L16.1458824,0 C13.8607059,0 12,1.87815 12,4.18475 L12,52.8143 C12,55.12185 13.8607059,57 16.1458824,57 L39.8531765,57 C42.1392941,57 44,55.12185 44,52.81525 L44,4.18475 C44,1.87815 42.1392941,0 39.8541176,0 Z M13.8823529,7.6 L42.1176471,7.6 L42.1176471,43.7 L13.8823529,43.7 L13.8823529,7.6 Z M16.1458824,1.9 L39.8531765,1.9 C41.1021176,1.9 42.1176471,2.92505 42.1176471,4.18475 L42.1176471,5.7 L13.8823529,5.7 L13.8823529,4.18475 C13.8823529,2.92505 14.8978824,1.9 16.1458824,1.9 Z M39.8541176,55.1 L16.1458824,55.1 C14.8978824,55.1 13.8823529,54.07495 13.8823529,52.81525 L13.8823529,45.6 L42.1176471,45.6 L42.1176471,52.81525 C42.1176471,54.07495 41.1021176,55.1 39.8541176,55.1 Z" id="Shape"></path>
                <path d="M29,47 C26.794,47 25,48.794 25,51 C25,53.206 26.794,55 29,55 C31.206,55 33,53.206 33,51 C33,48.794 31.206,47 29,47 Z M29,53 C27.897,53 27,52.103 27,51 C27,49.897 27.897,49 29,49 C30.103,49 31,49.897 31,51 C31,52.103 30.103,53 29,53 Z" id="Shape"></path>
                <path d="M25,5 L29,5 C29.553,5 30,4.553 30,4 C30,3.447 29.553,3 29,3 L25,3 C24.447,3 24,3.447 24,4 C24,4.553 24.447,5 25,5 Z" id="Shape"></path>
                <path d="M31,5 L32,5 C32.553,5 33,4.553 33,4 C33,3.447 32.553,3 32,3 L31,3 C30.447,3 30,3.447 30,4 C30,4.553 30.447,5 31,5 Z" id="Shape"></path>
                <path d="M53.6756637,4.27654903 C53.2918977,3.90781699 52.6715905,3.90781699 52.2878245,4.27654903 C51.9040585,4.64528107 51.9040585,5.24128785 52.2878245,5.61001989 C55.9547038,9.13324983 55.9547038,14.8660429 52.2878245,18.3902159 C51.9040585,18.7589479 51.9040585,19.3549547 52.2878245,19.7236867 C52.4792168,19.9075812 52.7304804,20 52.9817441,20 C53.2330078,20 53.4842715,19.9075812 53.6756637,19.7236867 C58.1081121,15.4658219 58.1081121,8.53535696 53.6756637,4.27654903 Z" id="Shape"></path>
                <path d="M49.6216088,6.27727765 C49.2502226,5.90757412 48.6499258,5.90757412 48.2785396,6.27727765 C47.9071535,6.64698119 47.9071535,7.24455826 48.2785396,7.61426179 C49.4534877,8.78388654 50.1003265,10.3421255 50.1003265,12.000591 C50.1003265,13.6590564 49.4534877,15.2163498 48.2785396,16.3859746 C47.9071535,16.7556781 47.9071535,17.3532552 48.2785396,17.7229587 C48.4637578,17.9073377 48.706916,18 48.9500742,18 C49.1932324,18 49.4363906,17.9073377 49.6216088,17.7229587 C51.1555951,16.1968679 52,14.1639712 52,12.000591 C52,9.83721068 51.156545,7.80336846 49.6216088,6.27727765 Z" id="Shape"></path>
                <path d="M4.71217549,5.61001989 C5.0959415,5.24128785 5.0959415,4.64528107 4.71217549,4.27654903 C4.32840948,3.90781699 3.70810227,3.90781699 3.32433626,4.27654903 C-1.10811209,8.53535696 -1.10811209,15.4648788 3.32433626,19.7236867 C3.51572852,19.9075812 3.7669922,20 4.01825588,20 C4.26951956,20 4.52078324,19.9075812 4.71217549,19.7236867 C5.0959415,19.3549547 5.0959415,18.7589479 4.71217549,18.3902159 C1.04431467,14.8669859 1.04431467,9.13419288 4.71217549,5.61001989 Z" id="Shape"></path>
                <path d="M8.72146037,6.27727765 C8.35007421,5.90757412 7.74977738,5.90757412 7.37839121,6.27727765 C5.84440487,7.80336846 5,9.83626514 5,11.9996454 C5,14.1630257 5.84440487,16.1959224 7.37839121,17.7229587 C7.56360938,17.9073377 7.80676759,18 8.04992579,18 C8.293084,18 8.53624221,17.9073377 8.72146037,17.7229587 C9.09284654,17.3532552 9.09284654,16.7556781 8.72146037,16.3859746 C7.54651232,15.2163498 6.89967349,13.6581109 6.89967349,11.9996454 C6.89967349,10.3411799 7.54556248,8.78388654 8.72146037,7.61426179 C9.09189671,7.24550379 9.09189671,6.64698119 8.72146037,6.27727765 Z" id="Shape"></path>
            </g>
        </g>
    </g>
</svg>