<?xml version="1.0" encoding="UTF-8"?>
<svg width="57px" height="54px" viewBox="0 0 57 54" version="1.1" xmlns="http://www.w3.org/2000/svg" xmlns:xlink="http://www.w3.org/1999/xlink">
    <!-- Generator: Sketch 50.2 (55047) - http://www.bohemiancoding.com/sketch -->
    <title>coding</title>
    <desc>Created with Sketch.</desc>
    <defs></defs>
    <g id="Symbols" stroke="none" stroke-width="1" fill="none" fill-rule="evenodd">
        <g id="Icons/UIUX-White" transform="translate(-1.000000, -3.000000)" fill="#FFFFFF" fill-rule="nonzero">
            <g id="coding" transform="translate(1.000000, 3.000000)">
                <path d="M52.725,0 L4.275,0 C1.90003711,0 0,1.92860775 0,4.33928269 L0,33.7500141 L0,38.0892968 C0,40.4999717 1.90003711,42.4285795 4.275,42.4285795 L22.515,42.4285795 L21.09,48.2142898 L20.8999629,48.2142898 C18.24,48.2142898 16.1499258,50.3356792 16.1499258,53.0357526 C16.1499258,53.6143237 16.5298887,54 17.0998887,54 L39.8998887,54 C40.4698887,54 40.8498516,53.6143237 40.8498516,53.0357526 C40.8498516,50.3357922 38.7598887,48.2142898 36.0998145,48.2142898 L35.9097773,48.2142898 L34.4847773,42.4285795 L52.725,42.4285795 C55.0999629,42.4285795 57,40.4999717 57,38.0892968 L57,33.7500141 L57,4.33928269 C57,1.92849475 55.0999629,0 52.725,0 Z M1.90003711,4.33928269 C1.90003711,2.98924596 2.94507422,1.92860775 4.275,1.92860775 L52.725,1.92860775 C54.0550371,1.92860775 55.0999629,2.98935896 55.0999629,4.33928269 L55.0999629,32.7856537 L1.90003711,32.7856537 L1.90003711,4.33928269 Z M38.8549629,52.0713922 L18.24,52.0713922 C18.6199629,50.9142502 19.665,50.1427845 20.8999629,50.1427845 L21.8499258,50.1427845 L35.1499629,50.1427845 L36.195,50.1427845 C37.4299629,50.1427845 38.475,50.9142502 38.8549629,52.0713922 Z M33.915,48.2141767 L23.085,48.2141767 L24.51,42.4284665 L32.49,42.4284665 L33.915,48.2141767 Z M55.0999629,38.0891838 C55.0999629,39.4392205 54.0549258,40.4998587 52.725,40.4998587 L33.2500371,40.4998587 L23.7500742,40.4998587 L4.275,40.4998587 C2.94496289,40.4998587 1.90003711,39.4391075 1.90003711,38.0891838 L1.90003711,34.7141485 L55.1000742,34.7141485 L55.1000742,38.0891838 L55.0999629,38.0891838 Z" id="Shape"></path>
                <path d="M47.058856,27 L32.941144,27 C32.3764356,27 32,27.3999766 32,28 C32,28.6000234 32.3764356,29 32.941144,29 L47.058856,29 C47.6235644,29 48,28.6000234 48,28 C48,27.3999766 47.6235644,27 47.058856,27 Z" id="Shape"></path>
                <path d="M22,24 C22,23.3999766 21.566709,23 20.916709,23 L10.083291,23 C9.43329102,23 9,23.3999766 9,24 C9,24.6000234 9.43329102,25 10.083291,25 L20.916582,25 C21.566709,25 22,24.6000234 22,24 Z" id="Shape"></path>
                <path d="M28.941144,25 L43.058856,25 C43.6235644,25 44,24.6000234 44,24 C44,23.3999766 43.6235644,23 43.058856,23 L28.941144,23 C28.3764356,23 28,23.3999766 28,24 C28,24.6000234 28.3764356,25 28.941144,25 Z" id="Shape"></path>
                <path d="M29.058856,27 L14.941144,27 C14.3764356,27 14,27.3999531 14,27.9999414 C14,28.5999297 14.3764356,29 14.941144,29 L29.058856,29 C29.6235644,29 30,28.6000469 30,28.0000586 C30,27.4000703 29.6235644,27 29.058856,27 Z" id="Shape"></path>
                <path d="M47.058856,12 L32.941144,12 C32.3764356,12 32,12.3999766 32,13 C32,13.6000234 32.3764356,14 32.941144,14 L47.058856,14 C47.6235644,14 48,13.6000234 48,13 C48,12.3999766 47.6235644,12 47.058856,12 Z" id="Shape"></path>
                <path d="M48.9166984,16 L38.0833016,16 C37.4332952,16 37,16.3999766 37,17 C37,17.6000234 37.4332952,18 38.0833016,18 L48.9166984,18 C49.5667048,18 50,17.6000234 50,17 C50,16.4000938 49.5667048,16 48.9166984,16 Z" id="Shape"></path>
                <path d="M28.749978,18 L30.250022,18 C30.7000264,18 31,17.6000234 31,17 C31,16.3999766 30.7000264,16 30.250022,16 L28.749978,16 C28.2999736,16 28,16.3999766 28,17 C28,17.6000234 28.2999736,18 28.749978,18 Z" id="Shape"></path>
                <path d="M28.941144,7 L43.058856,7 C43.6235644,7 44,6.60002344 44,6 C44,5.39997656 43.6235644,5 43.058856,5 L28.941144,5 C28.3764356,5 28,5.39997656 28,6 C28,6.60002344 28.3764356,7 28.941144,7 Z" id="Shape"></path>
                <path d="M24,3 L9,3 L9,18 L24,18 L24,3 Z M22.1250687,16.1250687 L10.8750412,16.1250687 L10.8750412,4.8750412 L22.1250687,4.8750412 L22.1250687,16.1250687 Z" id="Shape"></path>
            </g>
        </g>
    </g>
</svg>