<svg xmlns="http://www.w3.org/2000/svg" width="59" height="59" viewBox="0 0 59 59">
    <g fill="none" fill-rule="evenodd" transform="translate(4)">
        <path d="M0 0h51.304v59H0z"/>
        <path fill="#FFF" fill-rule="nonzero" d="M48.996 59H17.33C8.569 58.99 1.47 51.89 1.46 43.129a2.309 2.309 0 1 1 4.617 0c.007 6.212 5.041 11.247 11.254 11.254h31.665a2.309 2.309 0 1 1 0 4.617zM3.768 18.228A2.309 2.309 0 0 1 1.46 15.92v-.049C1.47 7.11 8.57.01 17.33 0h31.666a2.309 2.309 0 0 1 0 4.617H17.33C11.118 4.624 6.084 9.66 6.077 15.871v.049a2.309 2.309 0 0 1-2.309 2.308z"/>
        <path fill="#FFF" fill-opacity=".3" fill-rule="nonzero" d="M48.996 18.164H17.459a2.309 2.309 0 1 1 0-4.617h31.537a2.309 2.309 0 0 1 0 4.617zM48.996 45.356H17.459a2.309 2.309 0 0 1 0-4.618h31.537a2.309 2.309 0 1 1 0 4.618z"/>
        <path fill="#FFF" fill-rule="nonzero" d="M41.459 31.809h-24a2.309 2.309 0 0 1 0-4.618h24a2.309 2.309 0 0 1 0 4.618z"/>
        <rect width="7.534" height="7.526" y="25.737" fill="#FFF" fill-rule="nonzero" rx="3.763"/>
    </g>
</svg>
