<svg xmlns="http://www.w3.org/2000/svg" width="59" height="59" viewBox="0 0 59 59">
    <g fill="none" fill-rule="evenodd" transform="translate(4)">
        <path d="M0 0h51.304v59H0z"/>
        <rect width="7.534" height="7.526" y="51.474" fill="#42008A" fill-rule="nonzero" rx="3.763"/>
        <path fill="#0090FF" fill-rule="nonzero" d="M34.671 57.546H17.636a2.309 2.309 0 1 1 0-4.618h17.033a10.561 10.561 0 0 0 3.737-20.44 2.31 2.31 0 0 1 1.634-4.32 15.181 15.181 0 0 1-5.369 29.378zM12.072 30.978c-.279 0-.555-.05-.816-.15a15.178 15.178 0 0 1 5.387-29.374h17.444a2.309 2.309 0 0 1 0 4.618H16.643a10.564 10.564 0 0 0-3.743 20.44 2.309 2.309 0 0 1-.818 4.466h-.01z"/>
        <rect width="7.534" height="7.526" x="43.77" fill="#42008A" fill-rule="nonzero" rx="3.763"/>
        <path fill="#CFEEFF" fill-rule="nonzero" d="M25.668 45.404h-.031A15.835 15.835 0 0 1 14.983 41.3a2.309 2.309 0 1 1 3.1-3.422 11.23 11.23 0 0 0 7.554 2.909h.03a11.195 11.195 0 0 0 6.344-1.957 2.314 2.314 0 0 1 2.62 3.814 15.804 15.804 0 0 1-8.963 2.76zM34.828 21.771a2.309 2.309 0 0 1-1.56-.605 11.233 11.233 0 0 0-7.6-2.953h-.031a11.205 11.205 0 0 0-6.388 1.986 2.309 2.309 0 1 1-2.621-3.8 15.789 15.789 0 0 1 9.009-2.803h.03a15.827 15.827 0 0 1 10.718 4.163 2.309 2.309 0 0 1-1.557 4.012z"/>
        <rect width="7.534" height="7.526" x="21.886" y="25.737" fill="#42008A" fill-rule="nonzero" rx="3.763"/>
    </g>
</svg>
