<svg xmlns="http://www.w3.org/2000/svg" width="52" height="59" viewBox="0 0 52 59">
    <g fill="none" fill-rule="evenodd">
        <path d="M0 0h51.304v59H0z"/>
        <rect width="7.534" height="7.526" x="43.77" y="51.474" fill="#42008A" fill-rule="nonzero" rx="3.763"/>
        <rect width="7.534" height="7.526" x="43.77" y="36.408" fill="#42008A" fill-rule="nonzero" rx="3.763"/>
        <path fill="#CFEEFF" fill-rule="nonzero" d="M35.377 19.662H15.968a2.309 2.309 0 1 1 0-4.617h17.1V2.309a2.309 2.309 0 1 1 4.618 0v15.04a2.309 2.309 0 0 1-2.31 2.313zM15.968 59a2.309 2.309 0 0 1-2.308-2.309V41.623a2.309 2.309 0 0 1 2.308-2.308h19.399a2.309 2.309 0 0 1 0 4.617h-17.09v12.76A2.309 2.309 0 0 1 15.968 59z"/>
        <path fill="#0090FF" fill-rule="nonzero" d="M35.367 31.809H15.968a2.309 2.309 0 0 1 0-4.618h19.399a2.309 2.309 0 0 1 0 4.618zM47.536 28.877a2.309 2.309 0 0 1-2.309-2.309V2.308a2.309 2.309 0 0 1 4.618 0v24.26a2.309 2.309 0 0 1-2.309 2.309zM3.768 59a2.309 2.309 0 0 1-2.308-2.309V32.432a2.309 2.309 0 1 1 4.617 0v24.26A2.309 2.309 0 0 1 3.768 59z"/>
        <rect width="7.534" height="7.526" y="15.068" fill="#42008A" fill-rule="nonzero" rx="3.763"/>
        <rect width="7.534" height="7.526" fill="#42008A" fill-rule="nonzero" rx="3.763"/>
    </g>
</svg>
