<svg xmlns="http://www.w3.org/2000/svg" xmlns:xlink="http://www.w3.org/1999/xlink" width="124" height="124" viewBox="0 0 124 124">
    <defs>
        <circle id="a" cx="52" cy="52" r="52"/>
    </defs>
    <g fill="none" fill-rule="evenodd">
        <circle cx="62" cy="62" r="62" fill="#785BA7" fill-opacity=".1"/>
        <g transform="translate(10 10)">
            <mask id="b" fill="#fff">
                <use xlink:href="#a"/>
            </mask>
            <use fill="#603D97" xlink:href="#a"/>
            <path fill="#FFF" d="M78.063 73.406c5.578 2.016 9.82 5.063 12.726 9.14 2.906 4.079 4.36 8.977 4.36 14.696 0 6.235-1.594 11.625-4.782 16.172-3.187 4.547-7.558 8.016-13.113 10.406-5.555 2.39-11.848 3.586-18.879 3.586-6.047 0-11.754-1.09-17.121-3.27-5.367-2.179-9.715-5.495-13.043-9.948-3.328-4.454-4.992-9.915-4.992-16.383h21.234c0 2.343.633 4.476 1.899 6.398 1.265 1.922 3 3.422 5.203 4.5 2.203 1.078 4.664 1.617 7.383 1.617 3.093 0 5.777-.574 8.05-1.722 2.274-1.149 4.008-2.73 5.203-4.746 1.196-2.016 1.793-4.336 1.793-6.961 0-9.938-5.414-14.907-16.242-14.907H46.773V65.461h10.97c4.78 0 8.413-1.219 10.898-3.656 2.484-2.438 3.726-5.79 3.726-10.055 0-3.703-1.137-6.715-3.41-9.035-2.273-2.32-5.613-3.48-10.02-3.48-2.343 0-4.523.445-6.539 1.335-2.015.89-3.62 2.157-4.816 3.797-1.195 1.64-1.793 3.54-1.793 5.696H24.555c0-5.532 1.511-10.418 4.535-14.66 3.023-4.243 7.113-7.512 12.27-9.81 5.156-2.296 10.827-3.445 17.015-3.445 7.031 0 13.195 1.114 18.492 3.34 5.297 2.227 9.41 5.532 12.34 9.914 2.93 4.383 4.395 9.715 4.395 15.996 0 4.547-1.372 8.79-4.114 12.727-2.742 3.938-6.55 7.031-11.425 9.281z" mask="url(#b)" opacity=".156"/>
        </g>
    </g>
</svg>
