<svg xmlns="http://www.w3.org/2000/svg" xmlns:xlink="http://www.w3.org/1999/xlink" width="124" height="124" viewBox="0 0 124 124">
    <defs>
        <circle id="a" cx="52" cy="52" r="52"/>
    </defs>
    <g fill="none" fill-rule="evenodd">
        <circle cx="62" cy="62" r="62" fill="#785BA7" fill-opacity=".1"/>
        <g transform="translate(11 10)">
            <mask id="b" fill="#fff">
                <use xlink:href="#a"/>
            </mask>
            <use fill="#603D97" xlink:href="#a"/>
            <path fill="#FFF" d="M25.82 126v-14.555L58.937 76.43c4.688-5.203 8.028-9.598 10.02-13.184 1.992-3.586 2.988-6.832 2.988-9.738 0-4.5-1.113-8.004-3.34-10.512-2.226-2.508-5.378-3.762-9.457-3.762-2.906 0-5.425.727-7.558 2.18-2.133 1.453-3.762 3.457-4.887 6.012-1.125 2.554-1.687 5.449-1.687 8.683H23.78c0-6.234 1.477-11.941 4.43-17.12 2.953-5.18 7.148-9.282 12.586-12.305 5.437-3.024 11.695-4.536 18.773-4.536 7.22 0 13.336 1.16 18.352 3.48 5.016 2.321 8.812 5.673 11.39 10.056 2.579 4.382 3.868 9.644 3.868 15.785 0 4.453-.903 8.765-2.707 12.937-1.805 4.172-4.336 8.332-7.594 12.48-3.258 4.15-7.512 8.942-12.762 14.38l-16.875 17.648h43.031V126H25.82z" mask="url(#b)" opacity=".156"/>
        </g>
    </g>
</svg>
