<svg xmlns="http://www.w3.org/2000/svg" width="23" height="19" viewBox="0 0 23 19">
    <path fill="#4A4A4A" fill-rule="nonzero" d="M23 2.25a9.316 9.316 0 0 1-2.71.754A4.798 4.798 0 0 0 22.365.351a9.354 9.354 0 0 1-2.997 1.164A4.677 4.677 0 0 0 15.924 0c-2.606 0-4.719 2.147-4.719 4.796 0 .376.042.742.122 1.094C7.406 5.69 3.93 3.78 1.601.878a4.834 4.834 0 0 0-.639 2.411c0 1.664.833 3.133 2.1 3.993a4.642 4.642 0 0 1-2.138-.6v.06c0 2.324 1.626 4.263 3.785 4.703a4.656 4.656 0 0 1-2.13.083c.6 1.905 2.342 3.292 4.407 3.33A9.37 9.37 0 0 1 0 16.846 13.198 13.198 0 0 0 7.233 19c8.68 0 13.426-7.309 13.426-13.647 0-.208-.005-.415-.014-.621A9.676 9.676 0 0 0 23 2.249z"/>
</svg>
