<svg xmlns="http://www.w3.org/2000/svg" width="433" height="202" viewBox="0 0 433 202">
    <path fill="#FFF" fill-rule="nonzero" d="M278.92 348.966a45.679 45.679 0 0 1-42.66 27.92h-17.358a34.716 34.716 0 0 0-22.382 9.744 33.802 33.802 0 0 0-9.745 22.23v12.943a45.679 45.679 0 0 1-13.095 36.695 45.679 45.679 0 0 1-64.863 0c-13.541-13.646-17.09-34.31-8.876-51.691 8.213-17.382 26.43-27.76 45.571-25.963h12.942a32.584 32.584 0 0 0 22.535-9.592 34.868 34.868 0 0 0 9.745-22.383v-17.358a45.679 45.679 0 0 1 13.399-32.736 45.679 45.679 0 0 1 65.016.152 45.679 45.679 0 0 1 9.77 50.039zM90.697 314.154a33.954 33.954 0 0 1 9.744-22.23 34.716 34.716 0 0 1 22.383-9.745h12.485c25.228 1.219 46.667-18.244 47.887-43.471 1.22-25.228-18.243-46.667-43.471-47.887h-16.749a35.173 35.173 0 0 1-22.535-9.592 32.28 32.28 0 0 1-9.744-22.383v-12.942a45.679 45.679 0 0 0-12.334-36.847 45.679 45.679 0 0 0-65.015 0c-13.605 13.682-17.146 34.437-8.846 51.856 8.3 17.419 26.649 27.744 45.845 25.797h12.79c17.39.695 31.35 14.59 32.128 31.975v34.107a34.868 34.868 0 0 1-9.745 22.383 32.584 32.584 0 0 1-22.383 10.353H44.867a45.679 45.679 0 0 0-32.432 13.4 45.679 45.679 0 0 0 0 64.71 45.679 45.679 0 0 0 65.016 0 45.679 45.679 0 0 0 13.094-35.629l.153-13.855zm337.108-28.169h-17.663a35.173 35.173 0 0 1-22.535-9.592 32.28 32.28 0 0 1-9.744-22.383v-13.247a45.678 45.678 0 0 0 0-8.83v-12.334a33.802 33.802 0 0 1 9.744-22.23 34.716 34.716 0 0 1 22.383-9.745h17.662c20.637-.051 38.677-13.933 44.013-33.868 5.336-19.936-3.358-40.973-21.21-51.326-17.853-10.352-40.43-7.45-55.082 7.084a45.679 45.679 0 0 0-13.4 32.584v17.662a34.868 34.868 0 0 1-9.744 22.383 32.584 32.584 0 0 1-22.535 9.592H337.21a45.679 45.679 0 1 0 0 90.444h12.18c17.39.694 31.35 14.589 32.128 31.975v16.444a45.679 45.679 0 0 0 13.399 33.65 45.679 45.679 0 0 0 65.016 0 45.679 45.679 0 0 0 0-64.712 45.679 45.679 0 0 0-32.127-14.16v.61zM299.6 394.7a45.679 45.679 0 0 0 0 64.711 45.679 45.679 0 0 0 65.016 0 45.679 45.679 0 0 0 0-64.71 45.679 45.679 0 0 0-65.016-.61v.61zM173.224 78.3a45.679 45.679 0 0 0 0-64.711c-17.817-17.711-46.59-17.711-64.407 0a45.679 45.679 0 0 0 0 64.71c17.816 17.712 46.59 17.712 64.407 0zm108.715 58.012v-12.79a33.802 33.802 0 0 1 9.592-22.23 34.716 34.716 0 0 1 22.535-9.745h16.596a45.679 45.679 0 0 0 33.803-77.958 45.679 45.679 0 0 0-65.016 0 45.679 45.679 0 0 0-13.4 32.28V63.53a34.868 34.868 0 0 1-9.744 22.383 32.584 32.584 0 0 1-22.535 9.592h-14.312c-21.002-1.31-40.181 11.896-46.45 31.983-6.268 20.088 1.997 41.858 20.017 52.724s41.13 8.017 55.971-6.9c9.56-9.735 14.369-23.325 12.943-37z" opacity=".08"/>
</svg>
