<svg xmlns="http://www.w3.org/2000/svg" width="180" height="32" viewBox="0 0 180 32">
    <defs>
        <linearGradient id="a" x1="24.02%" x2="84.618%" y1="76.071%" y2="15.298%">
            <stop offset="0%" stop-color="#F05844"/>
            <stop offset="100%" stop-color="#603D97"/>
        </linearGradient>
    </defs>
    <g fill="none" fill-rule="nonzero">
        <path fill="#603C96" d="M53 22.24h-1.21a1.91 1.91 0 0 1-1.91-1.9v-3.71h-5.09v3.71a1.91 1.91 0 0 1-1.91 1.9h-1.23a.4.4 0 0 1-.4-.39V9.15a.4.4 0 0 1 .4-.39h1.22a1.91 1.91 0 0 1 1.91 1.9V14h5.09v-3.34a1.91 1.91 0 0 1 1.91-1.9H53a.4.4 0 0 1 .4.39v12.7a.4.4 0 0 1-.4.39zM69.59 22.24h-1.85a1.91 1.91 0 0 1-1.8-1.24l-.41-1.11h-4.87L60.2 21a1.91 1.91 0 0 1-1.78 1.2h-1.84a.4.4 0 0 1-.37-.54L61.12 9a.4.4 0 0 1 .37-.25h3.3a.4.4 0 0 1 .37.26L70 21.7a.4.4 0 0 1-.41.54zm-5-5l-1.46-4.3-1.48 4.3h2.94zM82.16 17.76a4.26 4.26 0 0 1-3 4.46 6.87 6.87 0 0 1-2.27.37 8 8 0 0 1-4.42-1.33.4.4 0 0 1-.13-.52l.34-.64a1.9 1.9 0 0 1 2.49-.83 3.71 3.71 0 0 0 1.62.4 2.05 2.05 0 0 0 1.17-.32 1.14 1.14 0 0 0 .56-1 1.17 1.17 0 0 0-.62-1 6.08 6.08 0 0 0-1.54-.61c-.873-.26-1.423-.437-1.65-.53a3.79 3.79 0 0 1-.92-.53A3.27 3.27 0 0 1 72.68 13a4.44 4.44 0 0 1 1.12-3.11 4.49 4.49 0 0 1 3.5-1.45 9.12 9.12 0 0 1 3.94.91.4.4 0 0 1 .18.54l-.35.67a1.93 1.93 0 0 1-2.29.93 3.17 3.17 0 0 0-.92-.14 1.84 1.84 0 0 0-1 .29 1 1 0 0 0-.51.87 1.1 1.1 0 0 0 .67.92c.576.24 1.172.43 1.78.57a5.15 5.15 0 0 1 2.67 1.54 3.37 3.37 0 0 1 .69 2.22zM97.16 22.24h-1.22a1.91 1.91 0 0 1-1.94-1.9v-3.71h-5.07v3.71a1.91 1.91 0 0 1-1.93 1.9h-1.2a.4.4 0 0 1-.4-.39V9.15a.4.4 0 0 1 .4-.39H87a1.91 1.91 0 0 1 1.91 1.9V14H94v-3.34a1.91 1.91 0 0 1 1.91-1.9h1.22a.4.4 0 0 1 .4.39v12.7a.4.4 0 0 1-.37.39zM120.48 9.27L116.4 22a.4.4 0 0 1-.38.27h-1.91a1.91 1.91 0 0 1-1.83-1.33l-2.05-6.49-2.16 6.51a1.91 1.91 0 0 1-1.82 1.31h-1.91A.4.4 0 0 1 104 22l-3.81-12.7a.39.39 0 0 1 .38-.51h1.69a1.91 1.91 0 0 1 1.85 1.41l2 7.31 2.44-7.41a1.91 1.91 0 0 1 1.82-1.31 1.91 1.91 0 0 1 1.83 1.35l2.26 7.37 2.16-7.35a1.91 1.91 0 0 1 1.84-1.37h1.7a.39.39 0 0 1 .32.48zM137.5 15.5a7 7 0 0 1-1.84 4.82 8 8 0 0 1-11.34 0 7 7 0 0 1-1.84-4.82c.01-.88.18-1.75.5-2.57a7.77 7.77 0 0 1 12.69-2.26 7.06 7.06 0 0 1 1.83 4.83zm-3.66 0a3.61 3.61 0 0 0-.92-2.47 3.92 3.92 0 0 0-5.14-.65 3.75 3.75 0 0 0-.73 5.56 3.67 3.67 0 0 0 2.95 1.35 3.71 3.71 0 0 0 2.92-1.29 3.64 3.64 0 0 0 .92-2.5zM151.24 22.24h-2.54a1.92 1.92 0 0 1-1.61-.87l-2.8-4.31v3.28a1.91 1.91 0 0 1-1.91 1.9h-1.22a.4.4 0 0 1-.4-.39V9.15a.4.4 0 0 1 .4-.39h5.09a4.3 4.3 0 0 1 3.56 1.43 4.19 4.19 0 0 1 .94 2.72 3.84 3.84 0 0 1-1.07 2.86 3.77 3.77 0 0 1-1.89.95l3.78 4.9a.39.39 0 0 1-.33.62zm-4.16-9.15a1.59 1.59 0 0 0-.53-1.21 2.32 2.32 0 0 0-1.61-.46h-.66v3.36h.66a2.29 2.29 0 0 0 1.61-.46 1.62 1.62 0 0 0 .53-1.22v-.01zM166.38 22.24h-2.79a1.92 1.92 0 0 1-1.51-.73l-4-5.12v3.95a1.91 1.91 0 0 1-1.91 1.9h-1.22a.4.4 0 0 1-.4-.39V9.15a.4.4 0 0 1 .4-.39h1.22a1.91 1.91 0 0 1 1.91 1.9v3.66l3.73-4.82a1.92 1.92 0 0 1 1.52-.74h2.55a.39.39 0 0 1 .3.65l-4.83 5.74 5.34 6.46a.39.39 0 0 1-.31.63zM179.21 17.76a4.26 4.26 0 0 1-3 4.46 6.86 6.86 0 0 1-2.27.37 8 8 0 0 1-4.42-1.33.4.4 0 0 1-.13-.52l.34-.64a1.9 1.9 0 0 1 2.49-.83 3.71 3.71 0 0 0 1.62.4 2.05 2.05 0 0 0 1.17-.32 1.14 1.14 0 0 0 .56-1 1.17 1.17 0 0 0-.62-1 6.07 6.07 0 0 0-1.54-.61c-.873-.26-1.423-.437-1.65-.53a3.79 3.79 0 0 1-.92-.53 3.27 3.27 0 0 1-1.11-2.68 4.44 4.44 0 0 1 1.12-3.11 4.49 4.49 0 0 1 3.5-1.45 9.12 9.12 0 0 1 3.94.91.4.4 0 0 1 .18.54l-.35.67a1.93 1.93 0 0 1-2.29.93 3.17 3.17 0 0 0-.92-.14 1.84 1.84 0 0 0-1 .29 1 1 0 0 0-.51.87 1.1 1.1 0 0 0 .67.92 11.13 11.13 0 0 0 1.79.62 5.15 5.15 0 0 1 2.67 1.54 3.37 3.37 0 0 1 .68 2.17z"/>
        <path fill="url(#a)" d="M19.172 23.906a3 3 0 0 1-2.802 1.834h-1.14a2.28 2.28 0 0 0-1.47.64 2.22 2.22 0 0 0-.64 1.46v.85a3 3 0 0 1-.86 2.41 3 3 0 1 1-1.85-5.1h.85a2.14 2.14 0 0 0 1.48-.63 2.29 2.29 0 0 0 .64-1.47v-1.14a3 3 0 0 1 .88-2.15 3 3 0 0 1 4.27.01 3 3 0 0 1 .642 3.286zM6.81 21.62a2.23 2.23 0 0 1 .64-1.46 2.28 2.28 0 0 1 1.47-.64h.82a3.004 3.004 0 0 0 .29-6h-1.1a2.31 2.31 0 0 1-1.48-.63 2.12 2.12 0 0 1-.64-1.47v-.85A3 3 0 0 0 6 8.15a3 3 0 0 0-4.27 0 3 3 0 0 0 2.43 5.1H5a2.2 2.2 0 0 1 2.11 2.1v2.24a2.29 2.29 0 0 1-.64 1.47 2.14 2.14 0 0 1-1.47.68H3.8a3 3 0 0 0-2.13.88 3 3 0 0 0 0 4.25 3 3 0 0 0 4.27 0 3 3 0 0 0 .86-2.34l.01-.91zm22.14-1.85h-1.16a2.31 2.31 0 0 1-1.48-.63 2.12 2.12 0 0 1-.64-1.47v-.87a3 3 0 0 0 0-.58v-.81a2.22 2.22 0 0 1 .64-1.46 2.28 2.28 0 0 1 1.47-.64h1.16a3 3 0 1 0-2.12-5.13 3 3 0 0 0-.88 2.14v1.16a2.29 2.29 0 0 1-.64 1.47 2.14 2.14 0 0 1-1.48.63H23a3 3 0 1 0 0 5.94h.8a2.2 2.2 0 0 1 2.11 2.1v1.08a3 3 0 0 0 .88 2.21 3 3 0 0 0 4.27 0 3 3 0 0 0 0-4.25 3 3 0 0 0-2.11-.93v.04zm-8.42 7.14a3 3 0 0 0 0 4.25 3 3 0 0 0 4.27 0 3 3 0 0 0 0-4.25 3 3 0 0 0-4.27-.04v.04zm-8.3-20.78a3 3 0 0 0 0-4.25 3 3 0 0 0-4.23 0 3 3 0 0 0 0 4.25 3 3 0 0 0 4.23 0zm7.14 3.81V9.1A2.22 2.22 0 0 1 20 7.64 2.28 2.28 0 0 1 21.48 7h1.09a3 3 0 0 0 2.22-5.12 3 3 0 0 0-4.27 0A3 3 0 0 0 19.64 4v1.16A2.29 2.29 0 0 1 19 6.63a2.14 2.14 0 0 1-1.48.63h-.94a3 3 0 1 0 1.94 5.11c.628-.64.944-1.532.85-2.43z" transform="translate(0 -1)"/>
    </g>
</svg>
