<svg xmlns="http://www.w3.org/2000/svg" width="19" height="15" viewBox="0 0 19 15">
    <path fill="#FFF" fill-rule="nonzero" d="M19 1.776c-.7.3-1.45.504-2.239.596A3.82 3.82 0 0 0 18.475.277 7.944 7.944 0 0 1 16 1.196 3.947 3.947 0 0 0 13.154 0c-2.152 0-3.898 1.695-3.898 3.787 0 .296.035.585.101.863A11.178 11.178 0 0 1 1.323.693a3.687 3.687 0 0 0-.528 1.904c0 1.314.688 2.473 1.734 3.152a3.97 3.97 0 0 1-1.765-.474v.048c0 1.834 1.343 3.365 3.126 3.713a4.013 4.013 0 0 1-1.76.065c.496 1.504 1.935 2.6 3.641 2.63A7.968 7.968 0 0 1 .93 13.35 8.12 8.12 0 0 1 0 13.3 11.269 11.269 0 0 0 5.975 15c7.17 0 11.091-5.77 11.091-10.774 0-.164-.004-.328-.011-.49A7.798 7.798 0 0 0 19 1.776z"/>
</svg>
