<svg xmlns="http://www.w3.org/2000/svg" width="10" height="19" viewBox="0 0 10 19">
    <path fill="#4A4A4A" fill-rule="nonzero" d="M9.623.004L7.225 0C4.53 0 2.789 1.835 2.789 4.676v2.156H.377A.382.382 0 0 0 0 7.219v3.124c0 .214.169.388.377.388H2.79v7.882c0 .214.169.387.377.387h3.146a.382.382 0 0 0 .378-.387V10.73h2.82a.382.382 0 0 0 .376-.388l.002-3.124a.393.393 0 0 0-.11-.274.372.372 0 0 0-.268-.113H6.69V5.004c0-.878.203-1.324 1.317-1.324h1.616A.382.382 0 0 0 10 3.291v-2.9a.383.383 0 0 0-.377-.388z"/>
</svg>
