<svg xmlns="http://www.w3.org/2000/svg" width="20" height="19" viewBox="0 0 20 19">
    <path fill="#4A4A4A" fill-rule="nonzero" d="M20 11.649V19h-4.287v-6.859c0-1.723-.62-2.899-2.171-2.899-1.185 0-1.89.793-2.2 1.56-.113.273-.142.655-.142 1.038V19H6.912s.058-11.617 0-12.82H11.2v1.817l-.029.042h.029v-.042c.57-.872 1.587-2.118 3.864-2.118 2.821 0 4.936 1.832 4.936 5.77zM2.426 0C.96 0 0 .957 0 2.215 0 3.445.932 4.43 2.37 4.43h.028c1.496 0 2.426-.986 2.426-2.216C4.795.957 3.894 0 2.426 0zM.255 19H4.54V6.18H.255V19z"/>
</svg>
